<?xml version="1.0" encoding="utf-8"?>
<!-- Generator: Adobe Illustrator 19.0.0, SVG Export Plug-In . SVG Version: 6.00 Build 0)  -->
<svg version="1.1" id="Layer_1" xmlns="http://www.w3.org/2000/svg" xmlns:xlink="http://www.w3.org/1999/xlink" x="0px" y="0px"
	 viewBox="0 0 450 500" style="enable-background:new 0 0 450 500;" xml:space="preserve">
<style type="text/css">
	.st0{fill:#C15D84;}
</style>
<g id="XMLID_143_">
	<g id="XMLID_503_">
		<path id="XMLID_507_" class="st0" d="M189.3,287.7c6.3,5.9,12.6,11.7,18.8,17.6c6.3,5.9,17.2,6.7,23.3,0c6.4-6.9,6.1-16.4,0-23.3
			c-10.5-12-29.7-13.9-43.2-6.1c-14,8-20.8,23.5-21.4,39.1c-0.3,7.8,5.5,13.3,12.1,15.9c24.3,9.4,54.1-7.5,59.8-32.5
			c2-8.8-2.7-17.7-11.5-20.3c-17.7-5.2-40.4-6.4-57.2,2.6c-9.4,5.1-16.3,15.5-15.7,26.4c0.5,11.4,8.2,21.1,19.4,23.7
			c21.1,4.8,44-16.9,38.1-38.4c-5.7-20.6-29.9-22.8-46.6-15.7c-16.4,6.9-29.6,23.1-27.6,41.7c2.1,19.6,17.5,34.4,37.7,31.6
			c9-1.2,17.2-6.2,22.1-13.9c6.8-10.4,5.5-24.5-5-31.8c-16.2-11.3-39.1,0.9-50,14.1c-7,8.5-13.5,18.3-14.2,29.6
			c-0.7,11.6,6.6,21.7,17,26.1c20.9,8.8,39.3-6.6,47.4-25c2.8-6.3,3.1-12.6-1.3-18.3c-4.4-5.7-10.5-6.9-17.3-5.9
			c-15.6,2.2-30.7,10.6-41.4,22.1c-11.7,12.6-23.5,33.6-11.1,49.7c8,10.4,20.6,9.6,31.8,6.2c8.4-2.5,17.1-5.4,24.4-10.5
			c17.2-12,25.4-32,16.4-51.8c-2.2-4.8-9-8.6-14.2-8.2c-18.3,1.5-37.3,4.6-53.1,14.7c-14.5,9.2-26.7,23.7-29.9,41
			c-1.7,9.3,2.5,17.1,11.5,20.3c14.2,5,30.3,0.9,42.2-7.5c10.9-7.8,21.9-18.8,28.9-30.3c7.9-13.1,8.4-31.1-3.1-42.4
			c-11.8-11.7-28.7-9.1-42.4-2.6c-22.9,10.9-48.6,33.5-40,61.8c1.1,3.8,3.2,8.3,6.1,11.2c3.4,3.4,7.9,4.6,12.5,5.4
			c7.6,1.4,15.3,2.2,23.1,1.5c14-1.4,27.4-6.6,37.5-16.8c11.1-11.4,18.6-30.3,9.7-45.2c-5-8.4-13.7-12.5-23-13.6
			c-9.4-1.1-17.9,2.7-26.3,6.4c-7.9,3.6-10.4,15.6-5.9,22.6c5.3,8.2,14.1,9.7,22.6,5.9c1.9-0.8,2.2-1,1.1-0.5
			c1.1-0.5,2.3-0.9,3.5-1.2c3.3-1.1-0.3-0.5,2.3-0.4c1.9,0.1,1.8,0.1-0.4-0.1c1.5,0.5,1.7,0.5,0.5,0.1c-1.7-1.3-2.3-1.9-3.4-3.9
			c-0.1-2-0.1-2-0.1,0c0.1-0.5,0.2-0.9,0.2-1.4c-0.2,1-2.4,5.9-0.8,3c-0.7,1.3-1.4,2.5-2.2,3.8c1.8-2.8-1.1,1.1-1.7,1.7
			c-0.6,0.6-4.5,3.4-1.8,1.6c-1.3,0.8-2.5,1.6-3.8,2.3c-0.9,0.5-1.8,0.9-2.7,1.3c1.7-0.7,1.6-0.7-0.2-0.1c-1.7,0.4-3.4,0.9-5.2,1.3
			c-3.3,0.8,0.5,0.3-2.7,0.3c-2.4,0-4.7,0.1-7.1,0c0,0-5.2-0.6-2.7-0.2c-2.4-0.4-4.7-0.9-7-1.5c3.3,2.5,6.6,5.1,9.9,7.6
			c-0.8-1.5-0.9-1.7-0.5-0.6c0.4,1.1,0.4,0.9-0.1-0.7c0.1,1.8,0.1,2.1,0.1,0.8c-0.1-0.7-0.1-1.4,0-2.2c-0.1-3.2-1,1.8,0.3-1.4
			c0.2-0.4,1.6-4,0.7-2.2c-0.8,1.6,1.4-2.1,1.7-2.6c0.6-0.9,0.6-0.8-0.1,0.2c0.4-0.4,0.7-0.8,1.1-1.2c1.2-1.1,2.3-2.3,3.5-3.4
			c3.6-3.3-2.2,1.4,1.8-1.4c5-3.5,10.4-6.3,15.5-9.5c1.5-0.9-1.9,0.5,0.9-0.4c1.4-0.4,2.9-0.7,4.2-1.2c-2.8,1-0.3,0.2,1.1,0.1
			c-2-0.3-2.3-0.4-1.1,0c1.2,0.3,0.8,0.2-0.9-0.4c-0.4-0.3-0.8-0.6-1.1-0.9c-1-1.6-1-1.6-0.1,0c-0.2-0.5-0.4-0.9-0.6-1.4
			c0.4,1.6,0.4,1.8,0.2,0.6c-0.2-1.3-0.2-1-0.2,0.7c0.3-1.8,0.3-2,0.1-0.8c-0.3,0.8-1.1,3-0.2,1.2c-0.7,1.5-1.6,2.9-2.6,4.3
			c1.4-2-1.6,1.9-1.6,1.9c-2.3,2.6-4.6,5.2-7,7.7c-4.9,5.2-7.2,7.4-12.9,10.4c-3.6,1.9-6.8,2.1-11,0.6c3.8,6.8,7.7,13.5,11.5,20.3
			c0.3-1.5,0.6-2.9,1-4.3c0.3-0.9,1.6-4.2,0.4-1.6c1.2-2.7,2.8-5.3,4.5-7.6c-1.9,2.6,0.7-0.7,1.2-1.3c1-1.1,2.1-2.2,3.2-3.2
			c0.6-0.5,3.6-2.9,1.3-1.2c1.4-1,2.9-2,4.4-2.9c5.9-3.5,9-4.6,16.5-6.5c3.4-0.8,6.8-1.5,10.2-2c1.2-0.2,1.1-0.2-0.1,0
			c0.9-0.1,1.7-0.2,2.6-0.3c2-0.2,4-0.4,6-0.6c-4.7-2.7-9.5-5.4-14.2-8.2c-1.8-4,0.1,1.9-0.4-0.9c-0.4-2.3-0.1,1.4-0.1,1.9
			c0.1-2.3-0.2-1.3-0.3,0.4c-0.2,1.8,1.6-2.5-0.2,0.7c-0.2,0.3-2.2,3.7-1.1,2c1.1-1.6-1.5,1.6-1.5,1.6c-0.5,0.6-1.5,1.4-0.3,0.4
			c-1.3,1-2.7,1.9-4.1,2.6c-1,0.5-1.9,1-2.9,1.5c-4.6,2.3,1.4-0.4-1.4,0.6c-2.6,1-5.2,1.8-7.9,2.6c-1.3,0.4-2.6,0.8-4,1.2
			c-0.5,0.1-1.1,0.3-1.6,0.4c-2.3,0.4-2.2,0.5,0.3,0.4c2.1-0.4,3.7,0.4,5,2.3c2,0.8,3.3,2.2,3.8,4.2c0.1,0.7,0.2,1.4,0.3,2.1
			c0.1-1.5,0-1.6-0.1-0.2c-0.1,2.5,0.5-1.2,0.5-1.5c-0.2,1.3-1.2,2.3-0.1,0.3c1.1-2.2,2.4-4.2,3.6-6.3c2.4-3.8-1.2,1.2,0.5-0.7
			c0.8-0.9,1.6-1.9,2.4-2.7c1.7-1.8,3.4-3.4,5.3-5c2.3-2-0.9,0.4,0.7-0.5c1-0.6,2-1.4,3-2c2.1-1.3,4.2-2.4,6.4-3.4
			c-1.5,0.7-1.3,0.5,0.1,0c1.2-0.4,2.3-0.8,3.5-1.1c2.6-0.7,5.2-1.2,7.8-1.6c-6.2-8.1-12.4-16.2-18.6-24.2c-1.4,3.2-3,6.2-4.8,9.1
			c-1.1,1.6-1.1,1.6-0.1,0.1c-0.6,0.7-1.3,1.4-2,2.1c2.4-2.2-0.6,0.2-1.4,0.7c2.2-0.9,2.4-1,0.6-0.5c2.4-0.2,2.7-0.3,0.8-0.2
			c-3.8,0.2,3.1,0.2-0.3-0.1c2.1,1,2.4,1.1,0.8,0.2c1.8,1.5,2.1,1.7,0.8,0.4c1,0.9,1.8,2,2.2,3.4c0.3,0.6,0.3,1.3,0.2,1.9
			c-0.2,1.2,0,0.9,0.4-0.9c-0.6,1.4-0.5,1.3,0.4-0.5c0.9-1.5,1.8-3.1,2.8-4.6c0.4-0.6,0.9-1.3,1.3-1.9c-1,1.3-0.9,1.2,0.3-0.3
			c1.2-1.3,2.4-2.7,3.7-3.9c0.6-0.5,1.1-1,1.7-1.5c-1.4,1-1.3,1,0.3-0.1c0.5-0.3,4.8-2.5,3.2-1.9c-2.3,0.8,5.4-0.6,0.6-0.3
			c1-0.1,1.9-0.1,2.9,0c-1-0.1-1.9-0.2-2.9-0.5c-2-2-3.9-3.9-5.9-5.9c-1.1-2.3-1.4-4.7-0.9-7c1-2.1,1.1-2.4,0.3-0.8
			c0.4-0.5,0.8-1,1.2-1.6c-1.3,1.2-1,1.1,0.7-0.4c-0.6,0.4-1.3,0.8-2,1.1c0.6-0.3,1.2-0.6,1.8-0.8c-1.8,0.4-1.5,0.5,1,0.1
			c-0.8,0.1-1.6,0.1-2.3,0.1c0.1,0.5,3.8,0.8-0.2-0.3c2.1,1,2.4,1,0.8,0.1c1.4,1.1,1.7,1.3,0.8,0.5c-0.8-0.9-0.6-0.6,0.5,0.8
			c-0.5-0.7-0.9-1.5-1.3-2.3c1.7,3,0.3-0.1,0-1.1c1,3.7,0.2-0.4,0.2-1.6c0.1-1.2,0.1-0.9-0.1,1.1c0.2-0.9,0.4-1.7,0.8-2.6
			c-1.1,3.3,0.6-0.5,1-1.2c-1.7,2.7,1.1-1,1.8-1.6c0.9-0.8,0.7-0.7-0.5,0.3c0.8-0.6,1.6-1.1,2.5-1.6c0.4-0.2,4.6-2.1,1.4-0.9
			c1.6-0.6,3.3-0.9,4.9-1.5c1.2-0.3,0.8-0.2-1.3,0.1c0.8-0.1,1.7-0.1,2.5-0.1c3.7-0.4-2.8-0.5,0.5,0.1c-2.1-1-2.3-1.1-0.7-0.3
			c-1.1-0.7-2-1.6-2.7-2.7c-0.9-1.6-0.6-3.1-0.7-4.8c0.9-1.7,0.8-1.7-0.1,0.1c0.3-0.3,0.6-0.6,0.8-0.9c-0.6,0.7-1.3,1.4-2.1,2.1
			c1.6-1.2,1.6-1.3,0-0.3c0.5-0.2,1-0.4,1.5-0.6c-1.9,0.5-1.7,0.6,0.5,0.2c-1.9,0-1.7,0.1,0.7,0.3c0.6,0.2,1.1,0.5,1.7,0.7
			c2.5,1.3,5,4.9,4.2,7.9c-0.2,0.4-0.4,0.9-0.5,1.3c-1.3,1.4-1.2,1.5,0.2,0c-1.3,1.1-1.1,1.1,0.5,0.1c-0.4,0.2-0.7,0.3-1.1,0.5
			c1.9-0.7,4-1.1,6-1.5c5.2-1-2.2,0,3-0.4c4.3-0.3,8.7-0.3,13,0.1c5.3,0.5-2.2-0.6,3,0.5c2.4,0.5,4.8,1.1,7.2,1.8
			c-3.8-6.8-7.7-13.5-11.5-20.3c-0.2,0.8-0.4,1.6-0.6,2.5c-0.5,1.9-0.4,0.6,0.3-0.4c-0.5,0.8-1.3,1.9-1.5,2.7
			c-0.5,1.7,1.6-1.5,0.3-0.3c-1.2,1.1-2.4,2.4-3.6,3.6c-1.2,1.3,1.9-0.8,0.3-0.3c-0.8,0.2-2.1,1.2-2.7,1.6c-1.6,1-0.8,0.3,0.5-0.1
			c-0.8,0.3-1.6,0.6-2.4,0.8c-0.8,0.2-1.6,0.4-2.5,0.6c-2,0.6-0.5-0.1,0.6,0c-0.8,0-1.7,0.1-2.5,0.1c-0.4,0-3.9-0.6-1.6,0
			c2.3,0.5-0.5-0.2-0.9-0.3c-1-0.3-2-0.6-3-1c4,5.3,8.1,10.6,12.1,15.9c0-1,0.1-1.9,0.2-2.9c-0.3,2-0.2,2,0.1,0.1
			c0.2-0.8,2.4-6.1,0.8-2.9c0.4-0.8,3.7-5.1,1.4-2.6c0.6-0.7,1.3-1.4,2-2c-1.3,0.9-1.4,1.1-0.5,0.5c0.5-0.4,1.1-0.7,1.7-1
			c-1.9,0.8-2,0.9-0.2,0.3c1.9-0.4,1.7-0.4-0.5-0.1c0.9-0.1,1.8-0.1,2.6,0c-2.2-0.4-2.4-0.4-0.5,0c1.8,0.6,1.7,0.5-0.3-0.3
			c1.6,1,1.5,0.8-0.2-0.4c0.7,0.6,1.2,1.2,1.8,1.9c7.8-7.8,15.6-15.6,23.3-23.3c-6.3-5.9-12.6-11.7-18.8-17.6
			c-6.3-5.9-17.2-6.7-23.3,0C183.5,270.7,182.6,281.4,189.3,287.7L189.3,287.7z"/>
	</g>
</g>
<g id="XMLID_142_">
	<g id="XMLID_497_">
		<path id="XMLID_501_" class="st0" d="M172.7,303.7c0.1-0.2,0.3-0.3,0.4-0.5c5.3-5.9,5.9-13,2.6-20c-6.9-14.5-25-9.4-35.1-2.2
			c-8.7,6.2-15.7,14.3-21,23.5c-5.1,8.9-8.5,18.7-11.6,28.4c-1.5,4.7-2.9,9.4-4.6,14c-0.9,2.4-1.7,4.9-2.7,7.3
			c0.8-2-0.5,0.9-0.8,1.6c-0.6,1.3-1.3,2.6-2,3.8c-4.1,7.6-2.2,18.3,5.9,22.6c8.1,4.3,17.7,1.9,22.6-5.9
			c9.1-14.5,14.5-30.6,22.1-45.9c1.8-3.5,3.6-7,5.7-10.4c1.2-1.9,2.5-3.8,3.7-5.6c1.2-1.6,1.3-1.8,0.4-0.7c0.7-0.9,1.4-1.7,2.1-2.6
			c5.8-6.7,10.7-11.1,16.7-15c6.9-4.6,10-12.8,6.8-20.6c-2.9-6.9-11.8-12.6-19.5-9.6c-19.7,7.8-35,20.9-47.5,37.9
			c-12.5,16.9-20.4,36.6-28.5,55.8c9.2-2.4,18.4-4.9,27.6-7.3c-0.2-0.3-0.5-0.6-0.7-0.9c1.4,2.4,2.8,4.9,4.2,7.3
			c0.2,1.3,0.2,2.7,0,4c0.1-0.4,0.3-0.8,0.4-1.2c0.9-1.4,1.3-3.4,1.9-4.9c0.6-1.6,1.3-3.3,2-4.9c-0.9,2.2,0.9-2.1,1.1-2.5
			c3-6.7,6.2-13.3,9.7-19.8c6.8-12.7,14.6-24.8,23.2-36.3c4.2-5.6,2.4-15.5-2.6-20c-5.5-5-13.4-6.3-20-2.6
			c-16.2,9.2-28,23.4-39.5,37.7c-12.7,15.9-25.1,32.2-37,48.7c-4.8,6.7-1.7,16.7,4.2,21.3c6.4,5,15.8,4.6,21.7-1.3
			c13.2-13.3,23.1-29.3,32.6-45.3c4.4-7.4,8.8-14.9,13.7-22c1.3-1.9,2.7-3.8,4.1-5.7c0.6-0.9,1.3-1.7,0.3-0.4c0.6-0.8,1.3-1.6,2-2.4
			c3-3.6,6.2-7,9.6-10.2c-7.8-7.8-15.6-15.6-23.3-23.3c-16,17.4-30,36.6-41.4,57.3c9.5,5.6,19,11.1,28.5,16.7
			c7.3-15.7,15.7-30.8,25.1-45.4c4.5-6.9,2-16.5-4.2-21.3c-7-5.4-15.1-3.9-21.7,1.3c-17.8,13.9-30.4,33.1-42.6,51.8
			c-4.7,7.2-1.7,18.6,5.9,22.6c8.2,4.4,17.5,1.8,22.6-5.9c8.8-13.4,17.5-26.8,26.3-40.2c4.5-6.9,1.9-16.5-4.2-21.3
			c-6-4.6-16.4-5-21.7,1.3c-9.9,11.9-19.1,24.4-27.3,37.7c-4.3,7-2.1,16.4,4.2,21.3c6.9,5.4,15.2,3.9,21.7-1.3
			c10.8-8.7,19.8-20,26-32.5c3.2-6.4,3-14.8-2.6-20c-5.3-4.8-13.7-6.6-20-2.6c-9,5.8-16.6,13.5-21.6,23.1
			c-3.8,7.4-2.4,16.1,4.2,21.3c6.8,5.3,15.3,4.1,21.7-1.3c6.4-5.4,11.7-11.8,16.4-18.6c4.6-6.8,1.8-16.6-4.2-21.3
			c-6.8-5.3-15.3-4.1-21.7,1.3c-3.6,3-7.2,6.1-10.9,9.1c-6.3,5.3-5.9,15.7-1.3,21.7c4.8,6.2,14.3,8.7,21.3,4.2
			c7.6-4.9,15.3-9.8,22.9-14.7c-6.7-8.6-13.3-17.3-20-25.9c-5.3,4.6-10.6,9.3-15.9,13.9c-4.9,4.3-5.8,12.3-3.4,18
			c2.8,6.6,8.3,9.3,15.1,10.1c7.6,0.9,13.3-3.9,17.3-9.5c5.1-7,1.5-18.7-5.9-22.6c-8.5-4.5-17.2-1.6-22.6,5.9
			c-0.2,0.3-0.5,0.7-0.7,1c2-2,3.9-3.9,5.9-5.9c-0.4,0.2-0.8,0.3-1.1,0.5c2.8-0.8,5.6-1.5,8.3-2.3c-0.4-0.1-0.8-0.1-1.2-0.2
			c3.9,9.4,7.8,18.8,11.7,28.2c5.3-4.6,10.6-9.3,15.9-13.9c6.2-5.4,6-15.6,1.3-21.7c-4.8-6.2-14.3-8.7-21.3-4.2
			c-7.6,4.9-15.3,9.8-22.9,14.7c6.7,8.6,13.3,17.3,20,25.9c3.6-3,7.2-6.1,10.9-9.1c-8.6-6.7-17.3-13.3-25.9-20c0-0.1-3,4-1.5,2.2
			c-0.9,1.1-1.9,2.2-2.8,3.2c-2.2,2.3-4.5,4.5-6.9,6.5c8.6,6.7,17.3,13.3,25.9,20c0.7-1.4,1.6-2.7,2.3-4.1c1.1-1.6,1.2-1.7,0.2-0.5
			c0.5-0.6,1-1.2,1.5-1.8c1.1-1.2,2.2-2.2,3.4-3.3c0.9-0.7,0.8-0.7-0.3,0.1c0.8-0.6,1.7-1.2,2.6-1.7c-7.5-7.5-15.1-15.1-22.6-22.6
			c-1.3,2.7-2.8,5.3-4.4,7.9c-0.7,1.2-1.5,2.3-2.3,3.4c0,0-3.1,4-1.4,1.9c-3.8,4.7-8.1,8.8-12.8,12.6c8.6,6.7,17.3,13.3,25.9,20
			c7-11.4,14.4-21.7,22.1-31c-8.6-6.7-17.3-13.3-25.9-20c-8.8,13.4-17.5,26.8-26.3,40.2c9.5,5.6,19,11.1,28.5,16.7
			c2.8-4.3,5.6-8.6,8.5-12.9c1.5-2.1,2.9-4.2,4.4-6.3c0.7-0.9,1.3-1.9,2-2.8c0.2-0.3,2.4-3.1,1-1.4c6.3-8.1,13.4-15.5,21.4-21.8
			c-8.6-6.7-17.3-13.3-25.9-20C98,294,89.6,309.2,82.3,324.8c-3.6,7.8-2.4,18.2,5.9,22.6c7.7,4.1,18.1,2.2,22.6-5.9
			c10.7-19.6,21.7-34.9,36.2-50.7c5.8-6.4,6.8-17.1,0-23.3c-6.7-6.2-16.6-6.3-23.3,0c-13.6,12.9-23.6,28.8-33.1,44.8
			c-4.4,7.4-8.8,14.9-13.6,22.2c-1.3,2-2.6,3.9-4,5.8c-0.6,0.8-1.2,1.7-1.8,2.5c-0.6,0.9-1.4,1.7-0.3,0.4c-2.9,3.7-6,7.2-9.4,10.5
			c8.6,6.7,17.3,13.3,25.9,20c10.7-14.9,20.8-28.3,31.8-42c5-6.3,10-12.6,15.5-18.4c2.7-2.8,5.4-5.6,8.4-8.1
			c0.8-0.7,1.7-1.4,2.6-2.1c-1.1,0.9-0.9,0.8,0.7-0.4c1.9-1.2,3.7-2.4,5.6-3.5c-7.5-7.5-15.1-15.1-22.6-22.6
			c-10.2,13.6-19.2,28.1-26.9,43.3c-4.1,8.1-7.7,16.4-11.1,24.8c-4.6,11.2-7.1,20.8,1.4,31.1c3.6,4.4,10.8,5.7,16.1,4.2
			c6.1-1.7,9.2-6,11.5-11.5c1.5-3.5,2.6-6.2,4.7-10.9c1.7-3.8,3.4-7.6,5.3-11.4c3.9-8,8.2-15.8,13.3-23c0.6-0.9,1.2-1.7,1.9-2.6
			c-1,1.2-0.9,1.1,0.3-0.4c1-1.2,2-2.4,3.1-3.6c2.8-3.2,5.8-6.2,9-9c0.4-0.3,3.8-3.1,1.6-1.4c1.7-1.3,3.4-2.5,5.2-3.6
			c1.8-1.1,3.6-2.2,5.4-3.1c0.9-0.5,1.9-0.9,2.8-1.4c-1.5,0.6-1.4,0.5,0.4-0.2c-4.2-10.1-8.5-20.1-12.7-30.2
			c-16.5,11-29.8,25.5-39,43.2c-8.4,16.1-13.9,33.5-23.6,48.9c9.5,5.6,19,11.1,28.5,16.7c8.1-15.1,12-31.8,17.9-47.7
			c1.3-3.6-0.9,1.7,0.7-1.5c0.9-1.8,1.7-3.6,2.7-5.3c0.7-1.3,1.5-2.6,2.3-3.8c0.4-0.6,3.9-5.3,1.7-2.6c2.2-2.6,4.5-5.1,7.1-7.2
			c-2.3,1.8,0.5-0.2,1.4-0.7c0.8-0.5,1.7-0.9,2.5-1.4c-3.1,1.5-6.4,1.1-9.9-0.9c-2-2-3.9-3.9-5.9-5.9c0.1,0.2,0.2,0.4,0.3,0.6
			c0.9-6.7,1.7-13.3,2.6-20c-0.1,0.2-0.3,0.3-0.4,0.5c-5.8,6.4-6.8,17.1,0,23.3C155.7,309.5,166.5,310.6,172.7,303.7L172.7,303.7z"
			/>
	</g>
</g>
<g id="XMLID_137_">
	<g id="XMLID_491_">
		<path id="XMLID_495_" class="st0" d="M255.8,200.3c-9.8-5-21.1-4-29.2,3.7c-7.9,7.5-8.6,20-3.2,29.1c5.6,9.5,17.3,13.4,27.6,10
			c11.3-3.8,18.6-16,15.5-27.8c-2.8-10.4-12.4-18.3-23.3-18c-7.4,0.2-13.8,4-19.5,8.4c-2.2,1.6,1.7-0.5,2.9-0.5
			c1.2-0.1,2.3,0.2,3.3,0.8c1.3,0.6,1.3,0.6,0.1,0c-2.9-1.6,2.1,2.1-0.2-0.1c-1.1-1.1-2.2-2.1-3.3-3.1c-5.8-5.2-12.7-9.6-20.9-8.9
			c3.9,9.4,7.8,18.8,11.7,28.2c4.6-3.6,8.2-9.7,9.1-15.5c1-6.8-0.2-12.9-5.9-17.3c-5.3-4.1-12.4-4.5-18.3-1.3
			c-1.3,0.7-2.6,1.4-3.8,2.1c8.1,3.3,16.2,6.6,24.2,9.9c0.6,2.2,0.3,4.4-1,6.5c0.9-1.6,0.9-1.5-0.2,0.1c-0.4,0.3-0.8,0.6-1.2,0.8
			c1.7-0.9,1.6-1-0.2-0.2c1.7-0.4,1.8-0.5,0.1-0.2c0.6,0,1.2,0,1.8,0c-1.3-0.4-1-0.3,1.1,0.1c1.2,0.3,2.4,0.6,3.6,0.9
			c8.6,2.2,17.1,4.3,26.1,4.5c8.3,0.2,17.3-0.8,25.2-3.4c10.5-3.5,17.6-9.7,21.7-20c-10.6,0-21.2,0-31.8,0c0.3,0.9,0.6,1.8,0.9,2.8
			c-0.7-2.9-0.5,0.8-0.2-0.8c0.5-2.4-1.1,2.1-0.1,0c0.9-1.9-1.7,1.6-0.1,0c1.5-1.5-3.2,1.4,0.8-0.7c-0.7,0.4-1.5,0.9-2.2,1.3
			c-1.5,0.9-0.9,0.5,0.4,0c-0.8,0.3-1.7,0.6-2.5,0.9c-9.6,3.5-19.7,6.6-26.2,15c-9.1,11.7-7.2,27.9,5.9,36c12.8,7.9,26.6,2,37.1-6.6
			c9-7.4,4.6-25.8-7.3-27.6c-9.5-1.4-19-0.6-27.1,5.1c-7.7,5.4-13.9,13.3-15.5,22.8c-3.4,19.4,6.8,37.5,24.9,45.1
			c16.7,7.1,43.3,3,46.2-18.6c1.6-12.2-6.1-23.1-17.6-27c-9.4-3.2-19.8-0.9-29.2,1.1c-9.2,2-18.4,4.5-25.6,10.7
			c-7,6-11.2,15.8-14.5,24.2c-7.3,18.3,0.7,36.7,15.2,48.7c7.1,5.9,14.7,11.3,23.7,13.9c9.5,2.8,20.2,2.2,29.6-0.4
			c17.8-4.9,33.9-19.7,31.2-39.5c-2.6-19.3-19.6-32.4-38.8-29.8c-8.3,1.1-16.3,4.5-24.1,7.5c-8.1,3.2-16.3,6.5-24.1,10.5
			c-13.3,6.8-26.6,16.8-32.8,30.8c-4.6,10.6-6.5,22.6,1.7,32c5.7,6.5,14.5,10.6,22.6,13.1c16.8,5.3,35.5,3.3,52-2
			c8.9-2.9,17.5-6.7,26.1-10.4c8.7-3.8,17.2-9.3,19.8-19c2.7-10-0.8-20.7-8.4-27.6c-8-7.3-18.6-8.8-29-9.5c-16-1-32.7,0-48.2,4.5
			c-16.1,4.7-31.5,13.5-42.4,26.4c-6.4,7.6-13.2,16.6-11.8,27.2c1.5,10.9,10.4,18.4,20,22.7c18.2,8.1,36.9,6,56,2.7
			c16.7-2.9,33.4-7,46-19.1c6.2-5.9,10.9-13.8,12.9-22.2c1.8-7.5-1.3-14.4-7.6-18.6c-19.8-13.3-45.6-15.5-68.3-9.6
			c-23.2,5.9-43.2,20.1-60.8,35.8c-7.1,6.3-5.4,16.8,0,23.3c11.2,13.6,30.5,18.4,47.4,16.6c18.4-2,37-7.2,53.8-14.8
			c8.5-3.8,16.6-9.2,21.6-17.3c5.7-9.2,5.7-21.1-1-29.8c-11.8-15.3-32.9-11.9-49.6-9.6c-33,4.6-63.9,18.7-89.9,39.3
			c-8,6.3-15.2,14.9-13.8,25.8c0.9,7,4.5,12.8,11.1,15.7c4.5,2,8.9,3.7,13.7,4.7c15.9,3.4,33,3.6,49.2,3.3c17.5-0.3,35.6-2.1,52-8.7
			c20.3-8.1,41.5-22.8,36.9-47.7c-1-5.4-6.4-10.3-11.5-11.5c-14.6-3.5-30.9-9.6-46-8.4c-14.7,1.1-29.6,5.6-43.8,9.3
			c-14.5,3.8-28.7,8.4-42.5,14.3c-6.4,2.7-12.7,5.3-17.5,10.6c-3.8,4.3-5.9,9.8-5.9,15.6c0,2.4,0.6,4.8,0.8,7.2
			c0.1,0.5,0.1,0.9,0.2,1.4c-0.6-2.1-0.3-4.1,1-6.1c-4.3,8.9-1.4,22,9.9,24.2c28,5.6,57,11.5,85.7,7.9c25.7-3.2,50.9-12.8,68.8-32.3
			c6.1-6.7,6.4-16.7,0-23.3c-17.5-18.2-42.8-27.4-68-24.9c-13.9,1.4-28.1,4.6-41.4,9c-13.5,4.5-23.5,13-34.1,22.3
			c-10.7,9.4-27.4,19.6-22.1,36.3c4.6,14.5,22.6,19.5,35.8,22.8c26.2,6.4,53.4,4.9,79.6-0.6c14.3-3,28.3-7.3,42.1-12
			c8.2-2.8,17.1-5.3,22-13.1c2.6-4,3.7-8.6,3.6-13.3c0-1.8-0.6-4.2-0.7-5.8c-0.3-1.9-0.3-1.9,0.1,0.2c-0.5,2.2-0.5,2.3,0.2,0.5
			c2.6-6.5-1.7-15.5-7.6-18.6c-44.6-23.9-96.6-16.5-141.8,1.6c-6,2.4-12.4,4.5-17.9,7.7c-8.4,4.8-12.8,14.2-10.8,23.7
			c1.1,5.4,3.7,10.6,5.7,15.7c2,5.3,3.7,10.3,8.9,13.4c3.5,2,8.1,3.2,11.9,4.4c23.7,7.9,49.4,13.8,74.4,14.5
			c13.2,0.3,26.2-1.9,38.6-6.2c10.9-3.7,22.3-7.7,31-15.5c9.7-8.7,14-22.4,9.7-34.9c-4.7-13.6-16.1-22-29.3-26.6
			c-11.7-4-24.5-5.8-36.7-7.4c-13-1.7-26-1.6-38.9,1.3c-11.6,2.6-22.6,7.6-33.7,11.8c-13,5-31.1,8.4-35.3,23.8
			c-3.6,13-1,29,7.6,39.3c7.1,8.5,18.2,13,28.9,15c25.3,4.8,51.5,4.8,77,1.9c24.6-2.8,52.5-6.4,66.8-29.4c6.8-11,8.7-26.4,2-37.9
			c-6.5-11.2-20.2-17-31.6-22.1c-12.2-5.5-24.3-9-37.6-10.7c-12.4-1.6-24.9-1-37.3-0.2c-12.1,0.7-24.7,1.3-36.2,5.6
			c-12.3,4.7-23.8,11.4-35.4,17.5c-10.4,5.5-23.4,10.3-30.8,19.9c-9.7,12.6-6.1,28.7,5.8,38.5c18.4,15.3,41.7,20.6,65,22.5
			c23.8,2,48.2,1.9,70.7-7.3c11.3-4.6,23.7-9.6,33.4-17.1c12.4-9.6,15.1-25.8,8-39.5c-5.5-10.7-16.5-17.3-27-22.2
			c-9.7-4.5-19.8-8.1-30.3-10.3c-21.2-4.4-43-4.1-64.1,0.6c-20.9,4.7-40.6,14.3-57.3,27.8c-5.6,4.5-9.4,10-10.4,17.2
			c-1.2,8.6,3.5,15.8,7.5,22.9c3,5.4,5.6,11.1,9.7,15.7c4.7,5.4,11,8.3,17.9,10.1c43.3,11,92,11.7,133.9-5.3
			c10.8-4.4,24.2-9.4,31.9-18.6c10.2-12.1,6.8-28.6-0.8-41.2c-6.9-11.4-19.8-15.8-32-19.3c-10.7-3.1-21.9-4.8-33-5.3
			c-22.4-1.1-44.6,3.5-65.1,12.4c-9.8,4.3-20.5,9.7-28.3,17.2c-9.8,9.4-11.7,26.2-8.1,38.8c7.6,26.6,40.3,33.4,64.3,33.9
			c24.4,0.5,49.4-3.4,72.7-10.3c11.6-3.4,24-7.3,34.5-13.2c5.9-3.3,10.8-8.2,13.4-14.4c3.7-8.7,0.1-16.6-5-23.9
			c-14-20-36.6-30.8-60.2-35.2c-25-4.6-52.3-7.5-77.4-2.8c-10.9,2.1-21.7,5.7-32.1,9.6c-11.3,4.3-22.9,9.7-30.7,19.3
			c-8.6,10.6-13.5,24.5-8.8,37.9c4.2,12,14.3,20.5,25.5,25.7c23.2,10.8,49,14.1,74.4,12.3c13-0.9,26-2.9,38.8-5.3
			c11.1-2.1,22.6-4.1,33.3-7.9c12-4.3,22.6-10.6,30.2-21c8-11,9.1-26.2,1.6-37.8c-7-10.7-17.9-16.5-29.3-21.2
			c-10.2-4.2-20.9-7-31.8-8.6c-24-3.5-48.1-1.8-71.8,3.5c-10.7,2.4-21.2,5.6-31.5,9.5c-8.9,3.3-16.9,7.9-17.3,18.6
			c-0.3,7.7,4.3,13.1,8.5,19c5,7,14.6,11.1,22.6,5.9c6.9-4.5,11.3-15.1,5.9-22.6c-1.1-1.5-2.1-3-3.2-4.5c-0.4-0.5-0.7-1-1.1-1.5
			c-1.9-3-1.8-1.8,0.3,3.6c-1.6,3.9-3.2,7.8-4.8,11.7c-3.4,3.7-5,2.4-2.1,1.6c1.1-0.3,2.2-0.8,3.2-1.2c1.9-0.7,3.8-1.3,5.7-2
			c4.7-1.6,9.4-3,14.1-4.2c3.9-1,7.8-2,11.8-2.8c2.3-0.5,4.5-0.9,6.8-1.3c1.1-0.2,2.3-0.4,3.4-0.6c0.4-0.1,4.6-0.6,2.9-0.4
			c1.8-0.2,8.1-0.8,11.5-1c4.6-0.3,9.1-0.3,13.7-0.2c4.2,0.1,8.5,0.4,12.7,0.9c0.8,0.1,1.7,0.2,2.5,0.3c-2.6-0.4,0.2,0.1,0.6,0.1
			c2.5,0.5,5,0.9,7.5,1.4c4.1,0.9,8.2,2,12.2,3.4c2.2,0.7,4.3,1.5,6.4,2.3c0,0,2.5,1.1,1.2,0.5c-1.4-0.6,2.1,1,2.4,1.1
			c1.7,0.8,3.4,1.8,5,2.8c0.8,0.5,1.6,1,2.4,1.6c-0.3-0.2-1.7-1.6-0.6-0.3c0.6,0.7,1.3,1.4,2,2c1.7,1.4-0.9-2.1-0.1-0.1
			c0.2,0.6,0.7,1.2,1,1.7c-0.7-1.7-0.9-2-0.5-0.8c0.3,1.2,0.3,0.9-0.1-1c0.3,0.2-0.5,2.7,0,0.9c0.6-2.2-1.2,2.2-0.3,0.3
			c0.7-1.4-3.1,3.6-0.9,1.2c-0.5,0.5-4.6,4.2-2.2,2.4c-1.6,1.2-3.3,2.2-5,3.1c-0.9,0.5-1.8,0.9-2.7,1.3c2.5-1.3,0.3-0.1-0.3,0.1
			c-1.9,0.7-3.9,1.4-5.8,1.9c-3.9,1.2-7.9,2.1-11.9,2.9c-19.8,4.3-36.8,7.7-56.5,8.1c-4.5,0.1-9.1,0-13.6-0.3
			c-2.1-0.1-4.2-0.3-6.3-0.5c-3.5-0.4-1.8-0.2-1-0.1c-1.5-0.2-3-0.5-4.5-0.7c-4.4-0.8-8.9-1.8-13.2-3.2c-4.7-1.4-7.7-2.5-10.9-4.1
			c-1.8-0.9-3.5-1.8-5.2-2.8c-0.8-0.5-1.7-1.1-2.4-1.6c0.6,0.5,2,1.9,0-0.2c-0.5-0.5-1-1.1-1.5-1.5c-1.7-1.4,0.8,2,0,0
			c-0.2-0.5-1.3-3.1-0.7-1.2c0.4,0.9,0.4,0.9,0.1,0c-0.3-1.1-0.3-0.9,0,0.6c-0.3,0,0.4-3.8-0.2-0.3c0.1-0.8,0.4-1.5,0.6-2.3
			c0.7-2.5-1.1,1.8,0.2-0.5c0.5-0.9,1-1.9,1.6-2.7c1.1-1.6,0.1,0-0.2,0.2c0.7-0.8,1.4-1.5,2.2-2.2c0.7-0.7,1.5-1.4,2.3-2
			c-1.8,1.4,0.2,0,1.1-0.5c1.5-1,3.1-1.9,4.8-2.7c0.9-0.5,1.9-0.9,2.8-1.4c-0.6,0.3-2.6,1,0.4-0.2c4-1.6,8.1-2.9,12.2-4.3
			c4.4-1.4,8.8-2.9,13.3-4.1c2.1-0.6,4.2-1.1,6.3-1.5c1.2-0.3,2.4-0.5,3.6-0.7c5.8-1-1.2,0.1,2.1-0.3c10.9-1.1,21.9-0.4,32.8,0.6
			c11.5,1,18.5,1.6,29.4,4.1c5.1,1.2,10.1,2.7,14.9,4.6c-2.6-1-0.2-0.1,0.3,0.2c1.2,0.6,2.3,1.1,3.5,1.7c2,1.1,4,2.3,6,3.5
			c0.9,0.6,1.7,1.2,2.5,1.8c-1.9-1.3,0.1,0.1,0.9,0.8c1.7,1.5,3.4,3.1,4.9,4.8c0.5,0.6,1,1.1,1.5,1.7c1.1,1.3-0.9-1.6,0.6,0.9
			c1.3,2.2,2.6,4.3,3.7,6.7c-0.6-4.2-1.1-8.5-1.7-12.7c0.2-0.5,0.4-1,0.6-1.5c1.3-1.5,1.3-1.7,0-0.3c0.4-0.3,0.7-0.6,1.1-1
			c-0.6,0.4-1.2,0.7-1.8,1c-3,1.6-2.8,1.4-6,2.7c-6.3,2.5-12.6,4.7-19.1,6.6c-5.9,1.8-11.8,3.3-17.8,4.6c-3.3,0.7-6.6,1.4-9.9,1.9
			c-1.5,0.3-3,0.5-4.5,0.7c-2.1,0.3-2.4,0.4-1.1,0.2c-0.9,0.1-1.8,0.2-2.7,0.3c-12.7,1.5-25.4,2-38.2,1c-5.4-0.4,2.9,0.7-2.4-0.3
			c-1.1-0.2-2.2-0.4-3.4-0.6c-3.1-0.7-6-1.5-9-2.6c-2.9-1,3.2,1.7-1.6-0.6c-1.5-0.7-2.9-1.6-4.4-2.4c-0.3-0.2-2.7-1.4-0.6-0.3
			c-1.4-1.5-1.5-1.5-0.6-0.2c-0.5-0.8-1-1.7-1.5-2.5c1.4,3.2,0,0.1,0.2-0.2c-0.1-0.5-0.2-1-0.3-1.4c0.2,1.9,0.3,1.9,0.1-0.1
			c0.1-1.2,0.1-2.5,0.1-3.7c0-2.3-1.4,3.4,0.3-1c1.5-3.9-0.2-0.3-0.3,0.2c0.1-0.4,2.6-1.9,0.3-0.3c2.5-1.8,5.2-3.5,8-5.1
			c2.5-1.5,5-2.8,7.6-4.1c1.2-0.6,2.4-1.1,3.6-1.7c4.6-2.2-2.9,1,1.9-0.8c5.4-2,10.9-3.8,16.5-5.2c2.5-0.6,5.1-1.2,7.7-1.6
			c1.5-0.3,3.1-0.5,4.7-0.7c-0.7,0.1-3,0.3,0.3,0c6-0.5,12-0.8,18.1-0.6c2.9,0.1,5.7,0.4,8.6,0.6c0.5,0,3.3,0.4,0.3,0
			c1.6,0.2,3.1,0.5,4.7,0.7c5.7,1,11.3,2.4,16.7,4.2c2.5,0.8,5,1.7,7.4,2.7c-3.5-1.5,1.3,0.5,1.3,0.8c-0.1,0.7-1.8-2-1.7-2
			c0.3-0.1,2,3.6,2.2,3.9c2,3.8-0.5-2.5,0.9,2.1c0.1,0.4,1,3.2,0.9,3.3c-0.3-0.8-0.3-1.6-0.1-2.4c2.5-3.6,2.9-4.4,1-2.4
			c-0.2,0,3.5-2.1-0.2,0c-1.4,0.8-2.8,1.6-4.2,2.4c-2.4,1.3-4.9,2.6-7.4,3.8c-1.5,0.7-3,1.4-4.5,2.1c0.7-0.3,2.4-1-0.6,0.3
			c-3.1,1.2-6.2,2.3-9.3,3.4c-5.8,1.9-11.7,3.4-17.6,4.7c-2.7,0.6-5.4,1.1-8.2,1.5c-1.1,0.2-2.2,0.3-3.3,0.5c3-0.4-3.3,0.3-3.9,0.4
			c-11.7,1.1-23.5,1.2-35.3,0.3c-3.4-0.2-6.7-0.6-10.1-0.9c-1.1-0.1-2.2-0.3-3.4-0.4c3.3,0.4-2.2-0.4-2.3-0.4
			c-6.1-1-12.2-2.1-18.2-3.5c-1.3-0.3-2.7-0.6-4-1c-0.2-0.1-0.5-0.1-0.7-0.2c-1.8-0.6-2-0.6-0.4,0.2c-0.4-0.2-0.9-0.5-1.3-0.7
			c0.7,0.3,1.2,0.7,1.6,1.4c-0.1,0-1.4-2.5-1.6-2.8c-1.7-3-3.3-6-5-9.1c-0.8-1.4-1.5-2.7-2.3-4.1c-0.6-1-1.1-2-1.6-3
			c1.7,4.1,1.5,7.5-0.8,10.2c-0.1,0.2-0.3,0.4-0.4,0.6c0.7-0.7,1.4-1.3,2.1-1.9c3.6-3.2-2.5,1.7,1.4-1.1c2.1-1.4,4.1-2.9,6.2-4.2
			c4.7-3,9.5-5.6,14.5-7.9c0.3-0.1,4.9-2,1.6-0.7c0.9-0.4,1.9-0.7,2.8-1.1c2.6-1,5.2-1.9,7.8-2.7c5.5-1.7,11.2-3,16.9-3.9
			c1-0.2,2-0.3,3-0.5c-3.8,0.5,1.2-0.1,1.6-0.1c2.5-0.2,5-0.4,7.5-0.5c5.5-0.2,11.1-0.1,16.6,0.4c1.5,0.1,3,0.3,4.5,0.5
			c-3.3-0.4,0,0,0.8,0.2c2.7,0.4,5.4,1,8.1,1.6c5.4,1.2,10.7,2.8,15.8,4.8c-0.2-0.1,4.4,1.8,2.2,0.9c-2.2-0.9,2.3,1.1,2.2,1
			c2.3,1.1,4.6,2.2,6.8,3.5c1.4,0.8,2.7,1.6,4.1,2.5c4.1,2.5-0.9-1.1,1,0.8c0.5,0.5,2.7,3,1.1,0.8c0.6,0.8,1.1,1.6,1.5,2.5
			c-0.6-1.5-0.7-1.6-0.4-0.5c0.8,2,0.4-3.2-0.1,0.6c0.2-1.9,0.5-2.3,1.5-3.9c-0.3,0.5-2.4,1.9-0.1,0.3c-1.2,0.9-2.6,1.6-3.9,2.3
			c-5.8,3.1-11.7,6.1-17.6,8.8c-4,1.8-9.7,4-15.6,5.4c-1.5,0.4-3,0.7-4.5,1c0.2,0-5.7,0.8-2.9,0.5c-3.7,0.4-7.3,0.6-11,0.7
			c-11.8,0.2-23.7-0.3-35.4-1.6c-5.2-0.6,3.2,0.6-2-0.3c-1.1-0.2-2.1-0.3-3.2-0.5c-3.1-0.6-6.2-1.3-9.3-2.1
			c-2.5-0.7-5.1-1.5-7.5-2.3c-1-0.4-2-0.7-2.9-1.1c2.9,1.2-2.6-1.3-3.2-1.6c-2.3-1.2-4.5-2.7-6.7-4c-3.9-2.4,1.5,1.8-1.6-1.2
			c-0.3-0.3-2.2-2.1-2.2-2.1c2-0.7,0.8,6.7,0.7,7.3c-0.3,0.4-0.6,0.9-0.9,1.3c1.4-1.2,1.3-1.2-0.2-0.1c1.1-0.8,2.4-1.5,3.6-2.2
			c12.2-6.9,24.8-13.3,37.3-19.8c11.1-5.8,19.9-7.7,32.5-8.5c13-0.8,26.2-1.7,39.2-0.2c-2.7-0.3,3.3,0.5,3,0.5
			c1.2,0.2,2.4,0.5,3.7,0.7c3.2,0.7,6.3,1.6,9.4,2.6c1.4,0.5,2.8,1,4.2,1.5c-0.2-0.1,5.1,2.1,2.6,1c3.2,1.4,6.4,3,9.6,4.6
			c2.6,1.4,5.2,2.8,7.8,4.2c-0.3-0.2,4.3,2.2,2.5,1.4c-1.5-0.7-0.4-2.7-0.1,0c-0.5-4.2-0.3,3.5-0.4-1.2c0,1,0,2,0,3
			c0.3-3.8-0.4,0.7-0.7,1.4c1.1-3.2-0.6,0.7-0.9,1.4c-1.8,3.5,1.8-1.3-1.1,1.4c-0.9,0.9-1.8,1.8-2.7,2.6c-1.9,1.7,3-1.5-0.9,0.6
			c-1.5,0.8-2.9,1.7-4.4,2.4c0.6-0.3,2.6-0.9-0.6,0.3c-1.6,0.6-3.1,1.1-4.7,1.5c-3.2,0.9-6.5,1.6-9.8,2.2c-12,2.2-24.9,3.4-38.4,3.8
			c-6.8,0.2-13.6,0.2-20.4-0.1c-3.2-0.2-6.5-0.4-9.7-0.6c-3.5-0.3-7-0.7-9.1-1c-2.5-0.4-5-0.8-7.4-1.3c-1.4-0.3-2.8-0.7-4.1-1.1
			c0,0-4.3-1.5-2-0.6c2.3,0.9-1.7-0.9-1.8-0.9c-0.8-0.5-3.6-3-1-0.5c-0.6-0.6-1.3-1.2-1.9-1.9c1.2,1.6,1.3,1.7,0.3,0.1
			c0.6,1.6,0.6,1.4-0.1-0.6c0.1,0.7,0.1,2.8-0.1-0.9c-0.1-1.8-0.1-3.6,0-5.4c0-0.6,0-1.2,0.1-1.8c0.1-1.6,0.1-1.8,0-0.5
			c0,0.3-0.1,0.6-0.1,0.9c-0.9,3.3-2.6,5.3-5.4,6.1c2.4,0.1,6.5-2.5,8.8-3.4c3.5-1.4,7.1-2.7,10.6-4.1c6.3-2.4,12.6-5,19-7.2
			c2.8-1,5.7-2,8.5-2.8c1.1-0.3,2.3-0.6,3.5-0.9c1.2-0.3,2.3-0.5,3.5-0.8c2.1-0.3,2.5-0.4,1.2-0.3c13.8-1.9,25,0.3,37.8,2.9
			c5.8,1.2,11.6,2.3,17.1,4.3c3.2,1.1,1.1,0.5,0.5,0.2c1.4,0.7,2.9,1.5,4.1,2.4c-2.7-2,0.9,1.2,1.2,1.5c-1.7-2.1,0.4,1,0.7,1.7
			c-0.2-0.4-0.4-0.8-0.6-1.2c0.4,1.9,0.5,1.9,0.1,0c0.9-2,0.5-0.5,0-0.2c0.3-0.5,0.5-1,0.8-1.5c-0.4,0.8-0.8,1.5-1.3,2.2
			c1.3-2.6,1.1-1.1,0.1-0.4c-0.6,0.5-3.9,2.7-0.8,0.8c-1,0.6-1.9,1.2-2.9,1.8c-1,0.6-2.1,1-3.1,1.6c-1.7,0.8-1.7,0.8,0.2,0
			c-0.8,0.3-1.7,0.7-2.5,1c-5.8,2.2-11.7,4.3-17.8,5.9c-7,1.9-10.8,2.3-18,2.3c-13.8,0-24.8-2.1-38.7-5.1
			c-12.8-2.8-25.4-6.5-37.7-11c3.8,3.8,7.7,7.7,11.5,11.5c-1.2-3.2-2.5-6.5-3.7-9.7c-0.6-1.5-1.1-2.9-1.7-4.4
			c-0.2-0.6-0.5-1.2-0.7-1.8c-0.7-2-0.8-2.2-0.2-0.6c-0.8,2.8-1.5,5.6-2.3,8.3c0.9-1.7,0.5-1.5-1.2,0.7c-2,1.7-2.3,2.2-1.1,1.5
			c0.8,0,2.5-1.2,3.3-1.5c5.5-2.4-2.7,1.1,2.8-1.2c1.1-0.5,2.3-0.9,3.4-1.4c6-2.4,12-4.6,18.1-6.6c5.8-1.9,11.6-3.6,17.6-5
			c3.3-0.8,6.5-1.5,9.8-2.1c1.2-0.2,2.4-0.4,3.6-0.6c-0.1,0,5.2-0.7,2.8-0.4c5.8-0.7,11.7-1.1,17.5-1.1c2.9,0,5.8,0.1,8.7,0.3
			c1.5,0.1,2.9,0.2,4.4,0.4c0.8,0.1,3.9,0.5,1.7,0.1c6,0.8,12,2.2,17.8,4c1.4,0.4,2.7,0.9,4.1,1.4c0.4,0.1,4.1,1.6,2.9,1.1
			c-1.2-0.5,2.4,1.1,2.8,1.3c1.6,0.8,3.1,1.6,4.6,2.4c-2.5-6.2-5.1-12.4-7.6-18.6c-1,2.6-1.4,5.5-1.3,8.2c0.1,1.9,0.5,3.9,0.7,5.8
			c0.5,3.7-0.2-0.1-0.1-0.2c1.3-2.5,2.5-5.5,4.7-7.6c1.4-1.3,1.7-0.6,0.1,0c-3,1.1-6,2.1-9,3.1c-9.9,3.3-19.9,6.4-30.1,8.9
			c-4.9,1.2-9.9,2.3-14.8,3.2c-2.5,0.5-5,0.9-7.5,1.3c-3.1,0.5,1.8-0.2-1.3,0.2c-1.5,0.2-3,0.3-4.5,0.5c-10.2,1-20.5,0.9-30.7-0.1
			c-0.2,0-3.2-0.4-1-0.1c-1.2-0.2-2.4-0.4-3.6-0.6c-2.4-0.4-4.7-0.9-7-1.4c-5-1.2-9.8-2.7-14.6-4.5c-2.7-1,1.2,0.7-0.9-0.4
			c-0.5-0.3-1.3-0.9-1.9-1c2,0.4,1.1,16.1,0.8,16.3c0.8-0.4,1.8-1.6,2.5-2.2c4.4-3.9,8.9-7.8,13.4-11.7c3.6-3.2,7.2-6.5,11-9.4
			c-0.6,0.5-1.9,1.3,0.8-0.5c0.9-0.6,1.9-1.3,2.9-1.8c1-0.6,2-1.1,3-1.6c0.5-0.3,1.1-0.5,1.6-0.8c-0.9,0.4-0.8,0.5,0.2,0
			c9.8-3.2,20-5.8,30.2-7.6c1.3-0.2,2.5-0.5,3.8-0.6c-1.7,0.2,3.4-0.2,3.3-0.2c2.9-0.2,5.8-0.2,8.6,0c1.1,0.1,2.2,0.2,3.3,0.3
			c1.9,0.2-2-0.5,1,0.2c2.5,0.6,5.1,1.2,7.6,2c1,0.3,2,0.7,3,1c2.8,1-0.5-0.3,1.1,0.5c2.1,1.1,4.2,2.1,6.2,3.4
			c0.9,0.5,1.8,1.1,2.6,1.7c0.2,0.1,4,3.1,1.7,1.2c2,1.7,3.9,3.5,5.7,5.4c0-7.8,0-15.6,0-23.3c-1.8,1.9-3.6,3.8-5.5,5.5
			c0.1-0.1-3.2,2.8-1.9,1.7c1.4-1.2-1.7,1.3-2,1.5c-4.3,3-8.8,5.4-13.5,7.6c-4.5,2.1,2.9-1-1.8,0.7c-1,0.4-2,0.7-2.9,1.1
			c-2.5,0.9-5,1.6-7.5,2.3c-2.5,0.7-5.1,1.2-7.7,1.7c-1.5,0.3-3.1,0.5-4.7,0.8c2.4-0.4,0.1,0-1.1,0.1c-26,2.7-48.6-2-73.8-7.1
			c3.3,8.1,6.6,16.2,9.9,24.2c1.9-3.9,3.3-7.6,3.2-12.1c-0.1-2.4-0.7-4.8-0.9-7.2c0.2,2.1-0.3,1.2,0.1,0.2c-0.1,3.2-1.2,5.5-3.4,7.1
			c-0.9,0.7-0.7,0.6,0.7-0.3c1.3-0.6,2.5-1.2,3.8-1.8c3-1.4,3.8-1.7,6.2-2.7c11.7-4.6,23.9-8.2,36.1-11.4c6-1.5,12-3,18-4.4
			c3-0.7,6-1.4,9-2.1c1.5-0.3,2.9-0.7,4.4-0.9c0.7-0.1,4-0.5,1.8-0.3c6.8-0.5,10.4,0.8,17.3,2.4c6.6,1.6,13.3,3.2,19.9,4.8
			c-3.8-3.8-7.7-7.7-11.5-11.5c0-0.1-0.5-4.1-0.2-2.1c-0.3,1.1-0.3,1,0.2-0.5c-0.3,0.4-0.5,0.9-0.8,1.3c2-1.3-0.5,0.4-1,0.9
			c-0.6,0.6-2.8,2.4-1,1c-2.1,1.6-4.6,3-6.9,4.2c-1.2,0.6-2.4,1.3-3.6,1.8c-0.8,0.4-3.4,1.4-1.3,0.6c-5,2-10.3,3.5-15.5,4.6
			c-2.7,0.6-5.4,1-8.1,1.4c2.4-0.3-0.4,0-1.4,0.1c-1.4,0.1-2.8,0.3-4.1,0.4c-10.8,0.9-21.7,0.7-32.5,0.3c-5.7-0.2-11.4-0.4-17.1-1.1
			c-1.2-0.1-1.1-0.1,0.1,0c-0.6-0.1-1.1-0.2-1.7-0.3c-1.4-0.3-2.8-0.5-4.2-0.9c-1.4-0.3-2.7-0.8-4.1-1.2c-3-0.8,0.6,0.5-2.4-0.9
			c2,2,3.9,3.9,5.9,5.9c0.2,0.3,0.6,10.5,0,10.5c-0.1,0.1-0.2,0.3-0.4,0.4c0.4-0.4,0.7-0.8,1.1-1.1c1.4-1.3,2.9-2.5,4.4-3.7
			c1.5-1.2,0.3-0.3,0,0c0.7-0.5,1.4-1,2-1.5c1.6-1.2,3.2-2.3,4.9-3.4c6.3-4.3,12.9-8.2,19.8-11.6c1.5-0.8,3-1.5,4.6-2.2
			c0.6-0.3,5.3-2.3,3.1-1.4c3.4-1.4,6.9-2.7,10.3-3.9c7.2-2.4,14.7-4.4,22.2-5.8c1.8-0.3,3.6-0.7,5.4-0.9c-0.2,0,2.9-0.4,1.6-0.2
			c-1.5,0.2,2.3-0.3,2.5-0.3c3.9-0.4,7.8-0.8,11.7-0.9c1.5,0,3,0.2,4.5,0.1c1.8-0.1-0.9,0-1.2-0.1c0.6,0.2,1.3,0.2,1.8,0.5
			c1.6,1-1-0.5-1.1-0.5c0.8,0.4,1.3,1.4,0.2,0c-1.4-1.7-2-1.8-2.6-4.2c-0.7-2.6-0.1-2.4,0-4.6c0.1-1.4,0.2,0-0.4,0.6
			c0.2-0.2,1.6-1.7,0.2-0.4c-0.6,0.5-1.1,1.1-1.7,1.6c0.6-0.5,2.2-1.3-0.4,0.2c-1.5,0.9-3,1.7-4.5,2.5c-0.8,0.4-1.6,0.8-2.4,1.2
			c-2.7,1.3,1.7-0.6-1,0.5c-7.5,3.1-15.5,5.3-23.4,7.3c-4.6,1.2-9.4,2.4-14.1,3.1c-1.7,0.2-7.2,0.1-10.7,0.2c-2.5,0,2.3,0.7-0.1,0
			c-1-0.3-2-0.4-3-0.7c-1-0.3-4.9-2-2.5-0.7c-0.8-0.4-5.3-3.2-3-1.4c-1.6-1.2-2.9-2.8-4.2-4.3c0,7.8,0,15.6,0,23.3
			c13-11.6,28.2-22.3,44.7-26.9c2-0.6,4.1-1.1,6.2-1.5c0.3-0.1,3.4-0.6,1.7-0.4c-1.9,0.3,2.2-0.2,2.6-0.3c4.6-0.4,9-0.1,13.5,0.1
			c2.6,0.1-2.2-0.5,0.3,0c1,0.2,2.1,0.4,3.1,0.6c2.3,0.5,4.6,1.1,6.8,1.9c1,0.3,2,0.7,3,1.1c-1.6-0.7-0.6-0.3,0.4,0.3
			c2.3,1.2,4.6,2.5,6.8,4c-2.5-6.2-5.1-12.4-7.6-18.6c0-0.1-1.2,4.5-0.5,2.2c0.7-2.2-1.1,2-1.1,1.9c-0.2,0.4-1.7,2.7,0.1,0.2
			c-0.7,1-1.6,1.9-2.5,2.7c-0.9,0.9-1.8,1.7-2.7,2.5c0.6-0.5,2.3-1.5-0.3,0c-0.8,0.5-1.7,1-2.5,1.5c-0.3,0.2-4.3,2.1-2.1,1.1
			c-10,4.3-21.8,5.7-32.6,7.3c2.3-0.3-1.5,0.2-2,0.2c-1.5,0.2-3.1,0.3-4.6,0.4c-2.7,0.1-5.5,0.2-8.2,0c-0.7,0-4.2-0.5-1.3,0
			c-1.1-0.2-2.2-0.4-3.2-0.6c-1.1-0.3-2.1-0.6-3.2-0.9c-3.3-0.8,0.7,0.7-2.1-0.8c-1.2-0.6-2.4-1.3-3.5-2c-0.2-0.1-0.5-0.3-0.7-0.4
			c1.2,1,1,0.8-0.4-0.5c0.2,1,3.9,9.8,2.2,10.5c0.6-0.3,1.7-2.6,2.2-3.3c1.7-2.5-2.5,2.7,0.9-1.2c0.7-0.8,1.4-1.6,2.2-2.4
			c1.9-2,3.9-3.8,5.9-5.6c3.9-3.4-1.3,0.8,1.2-0.9c1.1-0.8,2.2-1.5,3.4-2.2c2.1-1.3,4.2-2.4,6.3-3.5c0.6-0.3,3.8-1.7,1.2-0.6
			c1-0.4,2-0.8,3-1.1c2.5-0.9,5.1-1.7,7.7-2.3c2.6-0.7,5.3-1.1,7.9-1.7c0.5-0.1,3.2-0.5,0.5-0.1c1.4-0.2,2.7-0.3,4.1-0.4
			c5.2-0.5,10.4-0.6,15.6-0.6c2.7,0,5.5,0.1,8.2,0.3c1.1,0.1,2.2,0.1,3.3,0.2c5.2,0.4-1.4-0.5,1.5,0.2c0.6,0.2,4.1,0.7,1.6,0.2
			c1.5,0.3,1.7,2.1,0.3,0c-0.7-1.1-0.9-1.5-1.3-2.6c1.5,4-0.1-3.1,1-4.9c0.4-0.7,2.9-2.4,1.4-1.9c-1,0.4-2.1,1.1-3.1,1.6
			c-2.4,1.1-4.8,2.1-7.1,3.1c-3.2,1.4,3.6-1.4-2,0.8c-1.1,0.5-2.3,0.9-3.4,1.4c-2.8,1.1-5.7,2.2-8.6,3.1c-2.9,1-5.8,1.8-8.8,2.5
			c-1.2,0.3-2.4,0.6-3.6,0.8c0.4-0.1-5.5,0.9-3,0.6c2.3-0.3-3,0.2-2.7,0.2c-1.1,0.1-2.2,0.1-3.3,0.1c-2.7,0-5.5,0-8.1-0.4
			c3,0.4-0.5-0.2-1.2-0.3c-1.3-0.3-2.6-0.6-3.9-1c-1-0.3-2-0.6-3-1c2.6,1-0.6-0.3-1.2-0.6c-1.2-0.6-2.3-1.3-3.5-2
			c-1.4-0.8-1.2-1.8-0.2-0.1c-0.8-1.3,4,6.2,2.5,8.3c0.6-1,0.8-2.9,1.1-4.1c-1,3.1-0.1,0.4,0.3-0.5c0.6-1,1.2-2,1.8-3
			c1.7-2.6,0.4-0.5,0,0c0.8-0.9,1.6-1.8,2.4-2.6c0.7-0.7,5.2-4.5,2.7-2.6c2-1.5,4-2.8,6.1-4.1c9.2-5.6,16.7-8.5,26.1-12
			c5.2-2,10.6-4,16-5.4c2.9-0.7-3.7,0,1.4-0.2c0.9,0,3.7,0.4-0.2-0.1c2.8,0.4,0.1,0.3-0.5-0.3c2.7,2.5-1.8-2,0.7,0.4
			c2.9,2.9-1.6-1.7,0.2,0.1c0.9,0.9,1.1,3.4,0.2,0.1c0.2,0.8,0.4,1.6,0.6,2.4c-1.3-5.6-0.2,1.7-0.2-1.6c0-2.7-1.2,2.5,0.5-1.1
			c-0.4,0.8-0.9,1.7-1.5,2.5c2.2-2.9,0-0.1-0.3-0.1c1.5-1,1.5-1-0.1,0.1c-0.4,0.3-0.8,0.5-1.3,0.8c-0.4,0.3-4.7,2-1.4,0.8
			c-0.9,0.3-1.9,0.7-2.8,0.9c-1.1,0.3-2.1,0.5-3.2,0.8c-5.3,1.3,1.1,0.1-2.1,0.3c-1.5,0.1-3.1,0.2-4.6,0.1c0.6,0,2.8,0.8-1.1-0.2
			c-1.1-0.3-2.2-0.6-3.3-1c2.8,1-1.3-0.7-1.9-1c-1.4-0.8-2.7-1.7-4.1-2.6c-0.3-0.2-2.5-1.9-0.5-0.3c-1.8-1.4-3.5-2.9-5.2-4.6
			c-0.9-0.9-1.8-1.8-2.6-2.8c0.5,0.6,1.5,2.4-0.2-0.3c-0.5-0.9-1-1.7-1.5-2.6c1.5,2.9-0.1-0.7-0.3-1.6c1,4.3,0.3-2.7-0.1,0.8
			c0.2-1.7,0.8-3.4,1.4-4.9c-0.2,0.7-1.2,2.3,0.4-0.8c0.8-1.6,1.5-3.1,2.4-4.6c0.5-1,1-1.9,1.6-2.8c0.4-0.7,3-3.5,1.2-1.9
			c-2.7,2.3,1.8-1.1-0.2,0c-1.1,0.4-0.8,0.3,0.8-0.3c1-0.3,1.9-0.6,2.9-0.9c5.7-1.6,11.8-3.3,17.6-3.8c-2.3,0.2,1.6,0.2,2.1,0.1
			c1.2,0,1.2,0,0.1,0.1c-1.3-0.1-2.3-0.8-2.9-1.9c-2.9-2.9-3.6-7.4-1.2-11.1c0.3-0.5,4.2-3.8,1.7-2.1c2.3-1.5,1.7-0.8,0.4-0.4
			c-3.5,1.4,2.9-1.1-0.8-0.1c-0.5,0-1,0-1.5-0.1c1.7,0.3,1.9,0.3,0.7,0.1c-0.5-0.1-4.7-1.3-2.9-0.7c2.2,0.8-2-1.1-2-1.1
			c-2.9-1.4,1.3,1.4-1.3-1c-2.1-2-0.8-0.7-0.3,0c-0.6-0.8-2.1-3.9-1-1.3c-0.5-1.2-0.7-2.4-1-3.5c-0.2-1.2-0.2-1,0.1,0.7
			c0-0.7,0-1.5,0-2.2c0-0.2,0-0.5,0-0.7c-0.3,2-0.2,2,0.2,0.1c-0.2,0.4-0.4,0.8-0.6,1.2c0.4-0.8,0.9-1.6,1.4-2.4
			c-0.6,0.9-1.9,1.7,0.1,0.2c1.4-1.2,1.4-1.2,0,0c0.4-0.2,0.8-0.5,1.2-0.7c-0.5,0.2-0.9,0.4-1.4,0.5c0.6-0.2,1.3-0.4,2-0.6
			c1.2-0.3,0.9-0.3-1,0.1c1.9,0.1,1.8,0-0.3-0.3c-2.4-9.2-4.9-18.4-7.3-27.6c1.2-0.9,1-0.7-0.6,0.4c-1.6,0.8-1.9,1.1-0.9,0.6
			c0,0.1,4.2,0.3,5,0.8c2.9,1.9,4.6,6.8,3.7,10c-0.1,1-0.6,2-1.2,2.8c0.3-0.3,0.7-0.6,1-0.9c-1.6,1.2-1.6,1.4-0.1,0.4
			c0.8-0.4,1.5-0.8,2.3-1.2c-2.5,1.3-0.4,0.2,1-0.3c2.7-1,5.5-1.9,8.2-3c8.2-3.3,15.4-7.8,20.2-15.5c4.9-8,6.1-18.7,2.8-27.4
			c-2.5-6.6-8.3-12.5-15.9-12.1c-7.9,0.4-13.1,5-15.9,12.1c0.2-1.1,0.7-2,1.4-2.8c1.6-1.1,1.6-1.2,0-0.2c-1.7,0.8-1.7,0.8,0,0
			c-0.7,0.2-1.3,0.4-2,0.6c-2,0.6-4,1-6,1.3c1.9-0.3-4,0.3-4.7,0.3c-8.8,0.3-13.5-1.5-22.8-3.7c-10.2-2.4-20.9-2.6-30,3.2
			c-10.5,6.6-15.1,17.8-12.8,29.8c2.1,10.9,15.5,14.6,24.2,9.9c1.3-0.7,2.6-1.4,3.8-2.1c-8.1-6.2-16.2-12.4-24.2-18.6
			c-0.5,2.9,1-0.9,0.1,0.7c-1,1.7,2.2-2-0.7,0.2c-5.1,4-5.7,12.6-3.4,18c2.4,5.6,8.6,10.7,15.1,10.1c1.8-0.1,1.4-0.2-1.4-0.4
			c-2.2-1.1-2.7-1.3-1.6-0.7c3.5,1.7-1.6-1.9,0.5,0.4c1.6,1.6,3.3,3.2,5.1,4.6c7,5.8,15.8,9.4,25,6.7c3.2-1,6.3-2.5,9.1-4.4
			c1.1-0.8,2.4-1.6,3.4-2.5c0.5-0.3,1-0.7,1.5-0.9c-2.2,0.8-2.5,0.9-0.8,0.4c-5.9,0.6-12.2-1.8-12.2-8.9c0-6.3,5.9-10.7,11.7-9.1
			c12.9,3.5,5,23-6.7,17c7.7,3.9,18.3,2.2,22.6-5.9C265.8,215.4,264,204.6,255.8,200.3L255.8,200.3z"/>
	</g>
</g>
<g id="XMLID_136_">
	<g id="XMLID_485_">
		<path id="XMLID_489_" class="st0" d="M229.5,267.9c6.4-4.7,10.6-11.6,8.3-19.9c-2.2-7.9-9.9-13.4-18-13.3
			c-9.5,0.1-19.2,3.3-27.5,7.8c-10.4,5.6-19.4,15.2-16.2,28c2.9,11.5,14.5,16.1,25.1,16.9c17.1,1.3,37.3-5.9,48.4-19.3
			c8.3-9.9,9.4-22.8,0.7-32.9c-7.6-8.8-19.7-10-30.4-7.5c-18.8,4.5-36.5,15.8-49.7,29.7c-8.2,8.7-5.2,24.6,7.3,27.6
			c10.7,2.5,22.2,1.2,31.5-4.9c11.4-7.5,19.6-21.5,12.6-34.9c-12-23.2-42.8-12-59.1-0.4c-5.4,3.8-10.4,7.7-13,14
			c-3.7,8.8-0.8,19.2,7.4,24.4c10,6.4,23.5,3.6,33.7-1.2c10.4-5,19.8-15.1,19.9-27.3c0-15.6-14.4-23.3-28.3-21.6
			c-12.2,1.5-22.7,7-32.4,14.4c-1.6,1.2-3.1,2.4-4.7,3.6c0,0-4,3.1-2,1.6c-2,1.5-4.1,3-6.2,4.4c-2.1,1.4-4.2,2.7-6.5,3.7
			c0.8-0.3,2.3-0.7-0.7,0.1c-0.5,0.1-1.1,0.3-1.6,0.4c-5.1,0.9-2.2,2,8.8,3.3c1.4,2.4,2.8,4.9,4.2,7.3c-4.2,9.8-4.7,12.9-1.5,9.1
			c0.7-0.7,1.4-1.4,2-2.1c1.8-2.1,3.6-4.5,5-6.9c1.8-3.1,3.6-6.5,5-9.8c0.6-1,0.5-0.8-0.4,0.5c1.4-1.3,1.4-1.4-0.3-0.1
			c1.4-1.1,3-1.9,4.5-2.9c4.5-3,8.6-6.5,11-11.4c5.5-11.2-1.1-24.5-14.2-24.8c-5.9-0.2-12.4,2.2-16.2,6.9c-5.4,6.7-7,16.9,0,23.3
			c6.7,6.2,16.7,6.4,23.3,0c3.3-3.1-2.3,1,1.6-1.4c1.1-0.7,2.3-1.4,3.5-2c1.4-0.7-1.5,0.2,1.2-0.3c0.2,0,4.8-0.7,2.1-0.5
			c6.9-0.4,13.9,0.7,20.7,1.3c14.1,1.3,28.1,2.6,42.2,3.9c8.6,0.8,16.9-8.2,16.5-16.5c-0.4-9.6-7.3-15.6-16.5-16.5
			c-16-1.5-32-3-48-4.4c-8.2-0.8-16.1-1.4-24.3,0.5c-8.4,1.9-16.2,6.7-22.4,12.6c7.8,7.8,15.6,15.6,23.3,23.3
			c-2.4,0.9-4.8,1.8-7.2,2.8c-4.7-8.3-9.5-16.6-14.2-24.8c-0.9,1.6-0.7,1.5,0.5-0.2c-1.1,1-1.3,1.1-0.3,0.3c1.8-1.3-2.4,1.4-2.8,1.6
			c-3.1,2.1-6.1,4.3-8.5,7.1c-2.7,3.2-4.7,6.5-6.5,10.3c-0.7,1.5-1.5,3.1-2.3,4.6c-0.5,0.8-3,3.6-0.8,1.3
			c-8.5,8.4-13.1,21.4-3.7,31.3c7.2,7.6,18.1,7.3,27.2,3.9c16-6,24.6-17.2,38.6-24.3c4-2-2,0.3,2.3-0.9c0.5-0.1,5-1.2,2.1-0.8
			c1.1-0.1,2.2-0.2,3.4-0.1c-3.3-0.1-5.2-2.4-5.5-6.9c-3.9-2.5-5-5.2-3.3-8c1.3-1.3,1.3-1.3,0,0c-2.3,2.1,1.4-0.3-1.7,1.2
			c-0.4,0.2-4.5,1.8-1.8,0.9c-1.5,0.5-3,0.9-4.6,1.1c1.8-0.3,1.7-0.3-0.3-0.2c1.2,0.1,2.4,0.4,3.5,0.8c2,2,3.9,3.9,5.9,5.9
			c0.2,0.5,0.5,1,0.7,1.5c0,2.9,0,5.8,0,8.8c-2.5,3.4-3,4.3-1.5,2.8c0.7-0.6,0.8-0.7,0.2-0.2c-1.2,0.9,2.1-1.4,2.4-1.6
			c2.3-1.5,4.7-2.9,7.2-4.1c1-0.5,2-1,3-1.4c-2.3,1,1-0.3,1.5-0.4c1.3-0.5,2.7-0.8,4-1.2c2-0.6,1.6,0.2,0.1-0.4
			c-1.3-0.5-2.3-1-3.3-2.1c-1.6-1.7-2.6-6.9-2.1-9c0.3-1,1.9-2.6,0.8-1.8c-1.1,0.8-2.5,1.7-0.6,0.6c-0.4,0.2-3.8,1.7-1.9,1.1
			c2-0.6-2.3,0.4-2.2,0.4c1.5-0.4,1.8-0.2,0-0.2c-4.4,0,2.9,0.8-1.4-0.2c2.4,9.2,4.9,18.4,7.3,27.6c1.9-2,3.8-3.9,5.9-5.7
			c1-0.9,2.1-1.8,3.1-2.7c2.3-1.9-3,2,1.2-0.9c4.5-3.1,9.2-5.9,14.2-8.3c0.8-0.4,2.2-1,0.6-0.3c1.3-0.5,2.6-1,3.8-1.4
			c1.3-0.5,2.6-0.9,3.9-1.3c0.4-0.1,4.5-1.1,2.7-0.8c-1.1,0.1-0.7,0.1,1.1,0c-0.4-0.1-0.8-0.1-1.1-0.2c-1-0.9-2.4-1.1-3.3-2.3
			c-1.1-1.2-1.5-2.7-1.1-4.5c-0.9-1.9-0.9-3.7,0-5.4c0.3-0.4,0.6-0.8,0.9-1.2c-0.5,0.5-1,1-1.6,1.5c-0.4,0.4-3.1,2.5-1,0.9
			c-0.9,0.6-1.7,1.2-2.6,1.8c-1.1,0.7-2.3,1.3-3.5,1.9c-1.5,0.8,1.6-0.4-1.2,0.5c-2.5,0.8-5.1,1.6-7.7,2c2.4-0.4,0-0.1-1.1,0
			c-1.3,0.1-2.6,0-4,0c-3.2,0,0.8,0.4-0.6,0c-0.9-0.3-0.8-0.2,0.2,0.2c6.1,2.4,7,8.6,2.8,18.5c-0.3,0.9-2,1.3,0.1-0.1
			c1.4-0.9,2.9-1.7,4.4-2.6c0.6-0.3,2.3-1.1,0.7-0.4c1.3-0.5,2.7-1,4-1.3c1.4-0.4,2.7-0.7,4.1-1c3.1-0.7,0.1,0.4-1.4-0.2
			c-3.3-2.5-6.6-5.1-9.9-7.6c0.1,0.2,0.3,0.5,0.4,0.7c-0.6-4.2-1.1-8.5-1.7-12.7c0,0.3-0.1,0.5-0.1,0.8c2.5-3.3,5.1-6.6,7.6-9.9
			c-0.2,0.1-0.4,0.3-0.6,0.4c-6.9,5.1-11.1,14.6-5.9,22.6C211.3,268.9,222,273.4,229.5,267.9L229.5,267.9z"/>
	</g>
</g>
<g id="XMLID_131_">
	<g id="XMLID_478_">
		<path id="XMLID_483_" class="st0" d="M71.2,431.5c0.4-10.2,1.1-15.6,3.3-25.2c1-4.4,2.2-8.8,3.6-13.1c0.7-2.3,1.5-4.6,2.3-6.9
			c0.4-1.1,0.8-2.3,1.3-3.4c0.8-1.9,0.9-2.2,0.4-1.1c3.4-7.9,2.6-18.1-5.9-22.6c-7.2-3.8-18.8-2.5-22.6,5.9
			c-5.2,11.7-10.3,23.3-15.5,35c10.2,2.8,20.5,5.6,30.7,8.3c-0.8-11.8,0.6-18.7,4.5-30.3c3.5-10.3,7.5-18.3,12.8-29
			c3.7-7.4,2.5-16.1-4.2-21.3c-6.9-5.4-15.2-4-21.7,1.3c-5,4-8.7,10.4-9.9,16.8c-1.5,8.5,2.3,18.2,11.5,20.3
			c9.3,2.1,17.1-2.8,20.3-11.5c0.8-2.1,1.6-4.3,2.4-6.4c-1,2.4,0.9-1.9,1.1-2.3c1.8-3.9,3.8-7.7,5.9-11.4c2-3.5,4.1-6.8,6.4-10.1
			c1.1-1.6,2.3-3.3,3.5-4.9c-1.3,1.7,2.3-2.9,2.7-3.3c4.6-5.5,6.8-13.5,2.6-20c-3.7-5.7-11.7-10.3-18.6-7.6
			c-6.5,2.5-10.5,5.5-14.5,11.2c9.5,5.6,19,11.1,28.5,16.7c1.5-2.4,3.1-4.7,4.7-7c0.2-0.3,2.6-3.5,1.7-2.4c-0.9,1.1,1.6-2,1.9-2.3
			c3.6-4.3,7.5-8.4,11.6-12.3c2.1-1.9,4.2-3.8,6.3-5.6c0.9-0.7,1.7-1.4,2.6-2.1c-1.8,1.4,0.9-0.7,1.3-0.9
			c6.1-4.5,11.3-8.8,15.4-15.3c8.1-12.6-5.2-27.5-18.6-24.2c-4.7,1.1-9.4,3.7-12.4,7.5c-5.2,6.5-6.7,14.7-1.3,21.7
			c5.2,6.8,13.8,7.9,21.3,4.2c3.7-1.8,7.1-4.5,9.8-7.5c5.5-6.2,6.5-14.9,1.3-21.7c-5.1-6.6-14-8.2-21.3-4.2
			c-3.3,1.8-6.2,4.1-9.1,6.6c-5.3,4.5-6.3,14.2-2.6,20c3.6,5.6,11.8,10.4,18.6,7.6c1.2-0.5,2.3-1,3.5-1.5
			c7.9-3.3,14.5-11.1,11.5-20.3c-2.5-7.6-11.8-15.1-20.3-11.5c-1.2,0.5-2.3,1-3.5,1.5c5.4,9.2,10.7,18.4,16.1,27.6
			c-1.5,1.3,2.3-1.3,2.4-1.4c-6.7-8.6-13.3-17.3-20-25.9c-1.4,1.3-1.5,1.6-0.3,0.8c-0.9,0.6-1.9,1.2-2.9,1.6
			c6.7,8.6,13.3,17.3,20,25.9c1.9-2.3-1.3,0.8-2.1,1c-6.2-8.1-12.4-16.2-18.6-24.2c-2.5,3.8,1-0.8-0.8,1c-1,0.9-1.9,1.8-2.9,2.6
			c1.7-1.4-0.4,0.2-1.1,0.8c-1.8,1.3-3.6,2.7-5.3,4.1c-4.4,3.5-8.7,7.1-12.7,11.1c-8.6,8.5-16.1,18.1-22.6,28.3
			c-4.6,7.3-1.8,18.5,5.9,22.6c8.4,4.4,17.3,1.7,22.6-5.9c-1.7,1.3-3.5,2.6-5.2,3.9c-5.4-9.2-10.7-18.4-16.1-27.6
			C67.5,309,57.4,326.5,50.4,346c10.6,2.9,21.2,5.8,31.8,8.8c0.1-0.7,1.5-4.5,0.2-1.4c-0.3,0.4-0.6,0.7-0.9,1.1
			c0.6-0.7,1.3-1.3,2.1-1.9c-8.6-6.7-17.3-13.3-25.9-20c-11.8,23.7-23.6,48.9-21.8,76c0.5,7,4.8,14.2,12.1,15.9
			c6.6,1.5,15.6-0.8,18.6-7.6c5.2-11.7,10.3-23.3,15.5-35c-9.5-5.6-19-11.1-28.5-16.7c-9.1,21.2-14.4,43.1-15.4,66.3
			c-0.4,8.6,7.8,16.9,16.5,16.5C64,447.6,70.8,440.8,71.2,431.5L71.2,431.5z"/>
	</g>
</g>
<g id="XMLID_130_">
	<g id="XMLID_472_">
		<path id="XMLID_476_" class="st0" d="M114.9,317.8c7-5.4,15-10.5,21.2-16.9c3.8-4,6.7-8.4,8.5-13.6c0.9-2.5,1.3-5.1,1.2-7.7
			c0,0.9-2-11.1-1.4-4.9c-0.8,2.8-1.5,5.6-2.3,8.3c0.2-0.3,0.3-0.7,0.5-1c4.2-9,1.4-21.9-9.9-24.2c-0.6-0.1-1.3-0.3-1.9-0.4
			c2.4,9.2,4.9,18.4,7.3,27.6c0.9-0.9,1.7-1.8,2.6-2.7c4.6-4.8,6-11.9,3.4-18c-2.4-5.6-8.6-10.6-15.1-10.1c-2.3,0.2-4.8,0.3-6.9,1.2
			c6.8,6.8,13.5,13.5,20.3,20.3c2.4-7.5-1.2-15.9-7.9-19.8c-5.4-3.1-11.4-2.6-16.9-0.4c4.2,10.1,8.5,20.1,12.7,30.2c1-0.7,2-1.3,3-2
			c7.2-4.7,10.9-14.8,5.9-22.6c-5.2-8-14.2-9.9-22.6-5.9c1.8-0.7,1.7-0.7-0.1-0.1c5.4,9.2,10.7,18.4,16.1,27.6
			c0.6-0.6,1.2-1.2,1.8-1.7c9.9-9.4,2.8-29.3-11.7-28.2c-3.4,0.3-6.5,0.6-9.4,2.6c-5.4,3.9-10.5,11.6-7.6,18.6
			c0.1,0.2,0.1,0.3,0.2,0.5c3.5,8.6,10.7,13.7,20.3,11.5c0.1,0,0.2-0.1,0.4-0.1c8.4-1.9,14.2-12.1,11.5-20.3
			c-2.9-8.8-11.3-13.6-20.3-11.5c-0.1,0-0.2,0.1-0.4,0.1c6.8,3.8,13.5,7.7,20.3,11.5c-0.1-0.2-0.1-0.3-0.2-0.5
			c-2.5,6.2-5.1,12.4-7.6,18.6c0.1-0.1,0.3-0.2,0.4-0.3c-2.8,0.8-5.6,1.5-8.3,2.3c0.2,0,0.4,0,0.6,0c-3.9-9.4-7.8-18.8-11.7-28.2
			c-0.6,0.6-1.2,1.2-1.8,1.7c-11.8,11.1,0.3,32.6,16.1,27.6c2.7-0.9,5.4-2,8-3.3c-5.6-9.5-11.1-19-16.7-28.5c-1,0.7-2,1.3-3,2
			c-6.9,4.5-10,12.8-6.8,20.6c2.9,6.8,11.8,12.6,19.5,9.6c2.6-1.1,4.1-0.5-0.2-0.7c-3.9-1.6-7.8-3.2-11.7-4.8
			c0.2,0.2,0.3,0.4,0.5,0.5c-1.4-5.4-2.8-10.7-4.2-16.1c-0.1,0.2-0.1,0.4-0.2,0.6c-3.5,11,8.5,25.2,20.3,20.3c-0.6,0-1.2,0-1.8,0
			c-3.9-9.4-7.8-18.8-11.7-28.2c-0.9,0.9-1.7,1.8-2.6,2.7c-8.1,8.5-5.3,25,7.3,27.6c0.6,0.1,1.3,0.3,1.9,0.4
			c-3.3-8.1-6.6-16.2-9.9-24.2c-2.2,4.7-4,10.9-1.6,16.1c0.7,2,0.8,1.7,0.5-1.2c-0.3-1.3-0.1-2.5,0.4-3.6c-0.9,1.4-1.1,1.7-0.5,0.8
			c0.7-0.9,0.4-0.7-0.7,0.6c-1.2,1-2.3,2.1-3.5,3.1c-2.5,2.1,1.2-0.9-1.9,1.5c-2.8,2.2-5.7,4.4-8.5,6.6c-6.8,5.3-11.2,14.4-5.9,22.6
			C96.7,318.6,107.6,323.4,114.9,317.8L114.9,317.8z"/>
	</g>
</g>
<g id="XMLID_125_">
	<g id="XMLID_466_">
		<path id="XMLID_470_" class="st0" d="M329.5,238c-8.8,1.1-17.3,3.2-24.6,8.5c-9.8,7.1-13.5,16.5-11.7,28.4
			c2.3,15.4,15.2,28.4,29.9,32.5c8.6,2.4,17.8,1.8,25.7-2.3c9.5-4.9,15.2-15.3,13.1-25.9c-1.8-8.9-9.4-15.7-18.1-17.4
			c-8.7-1.7-16.9,0.4-24.8,4.2c-13.5,6.6-24.2,20.6-26.6,35.4c-2.6,16,1.1,37.6,17.1,45.8c19.5,10,36.1-7.3,41.5-25
			c2.8-9.3,1-19.9-6-26.9c-7.3-7.3-18-8.1-27.3-4.4c-14.5,5.8-26.7,18.3-29.6,34c-2.9,15.9,1.8,33.9,14.7,44.4
			c15,12.2,37.6,7.8,50.9-5c12-11.5,15.5-31.8,6-45.9c-5.5-8.2-14.8-14.7-25-14.1c-9.2,0.5-17.6,5.3-23.3,12.4
			c-6.4,7.8-8,15.9-7.8,25.8c0.1,8.6,1.4,17.8,6.2,25.2c5.7,8.8,14,13.9,24.4,15c8.5,0.9,17-2.2,24.5-5.9
			c8.7-4.2,14.8-11.2,17.3-20.7c2.3-8.6,3.2-18.8,0.1-27.3c-6.1-16.8-25.3-30.2-43.2-22.7c-19,8-18.7,34.2-10.9,49.8
			c6.9,13.8,27.6,30,43.7,23.2c17.6-7.4,16-31.8,12.6-47.2c-1.7-7.7-4.9-15.2-8.9-22c-3.6-6.1-11.7-9.8-18.6-7.6
			c-6.3,2.1-13,8.6-12.1,15.9c2.3,19.4,9.9,36.9,23.7,51c8.3,8.5,25,5,27.6-7.3c3.2-14.8-0.1-29.9-8.4-42.5
			c-8-12-18.8-21.4-29.3-31.1c-10.5-9.7-20.9-19.4-31.4-29c-4.4-4.1-8.8-8.2-12.8-12.6c-1.2-1.3,0.9,1.6-0.7-0.9
			c-0.8-1.3-1.6-2.5-2.4-3.8c-2-3.4,0.3,2.3-0.6-1.5c-0.4-1.5-0.7-2.9-0.9-4.4c-5.3,7-10.6,13.9-15.9,20.9c8.2,1,16.4,2,24.5,3.1
			c-2.2-0.3,2,0.3,2.6,0.5c1.7,0.3,3.5,0.8,5.1,1.3c-1.8-0.6,1.8,0.9,2.4,1.2c1.8,1,3.5,2.1,5.2,3.2c2.6,1.7,5.2,3.5,7.8,5.3
			c1.3,0.9,2.5,1.8,3.7,2.7c1.5,1.1,0-0.1-0.3-0.3c0.8,0.6,1.6,1.3,2.4,1.9c2.5,2.1,4.9,4.3,7.2,6.7c0.5,0.5,3,3.4,2.1,2.3
			c-1.1-1.4,0.4,0.5,0.5,0.7c0.5,0.8,1.1,1.6,1.6,2.5c0.7,1.2,1.4,2.5,2,3.9c-1.2-2.5,0.1,0.5,0.4,1.6c0.2,0.6,0.9,4.5,0.6,2.2
			c0.3,2,0.3,4.1,0.5,6.1c0.7,8.9,2.5,16.9,5.2,25.3c1.1,3.5,2.1,7.1,3,10.7c0.4,1.8,0.8,3.6,1.1,5.4c0.1,0.8,0.9,5.4,0.7,3.8
			c1.1,8,1.5,16.1,1.9,24.1c0.5,8.7,0.9,17.4,1.9,26.1c0.6,5.4,1.4,10.8,2.3,16.2c0.1,0.9,0.3,1.7,0.4,2.6c-0.2-1.8,0,0,0,0.8
			c0,0.9,0.1,1.7,0.1,2.6c0,2.7,0.9-3.3-0.2,1.5c-2.1,8.4,2.7,18.3,11.5,20.3c8.5,1.9,18.1-2.6,20.3-11.5c2.5-10,0.6-19.4-1-29.4
			c-0.6-3.5-0.3-1.9-0.2-1.1c-0.1-0.9-0.2-1.9-0.3-2.8c-0.2-2.2-0.4-4.3-0.6-6.5c-0.4-4.3-0.6-8.7-0.9-13c-1-18.4-1.8-37.2-7-55
			c-1.1-3.8-2.5-7.5-3.6-11.3c-0.3-1.2-0.6-2.3-0.9-3.5c0,0-0.6-2.9-0.3-1.3c0.3,1.7-0.2-1.8-0.2-2.2c-0.1-1.2-0.2-2.3-0.3-3.5
			c-0.7-9.5-2.3-18.3-6.8-26.8c-7.6-14.3-21.3-24.3-34.4-33.2c-8.2-5.5-16.7-10.3-26.6-11.8c-11-1.7-22.2-2.9-33.3-4.3
			c-5-0.6-10.1,2.8-13,6.5c-3.5,4.5-3.7,8.9-3,14.4c1.7,12.4,10.2,22.9,19,31.4c9.7,9.4,19.8,18.4,29.7,27.6
			c9.5,8.8,19.5,17.2,28.2,26.8c1,1.1,1.9,2.2,2.9,3.3c-1.4-1.7,1.6,2.3,1.6,2.2c1.5,2.3,3,4.7,4.1,7.3c-0.8-2.1,0.1,0.7,0.3,1.5
			c0.4,1.3,0.7,2.7,1,4c-0.5-3.1,0,1.9,0,2.1c0.2,3.4,0.5-1.5-0.2,2.1c9.2-2.4,18.4-4.9,27.6-7.3c-1.1-1.1-2.2-2.3-3.2-3.5
			c-2.4-2.6,0.5,1.1-1.3-1.7c-1.9-2.9-3.7-5.8-5.3-8.9c-0.4-0.7-0.7-1.4-1-2.2c0.5,1.3,0.6,1.4,0.1,0.3c-0.6-1.5-1.1-3-1.5-4.5
			c-0.5-1.5-0.9-3.1-1.2-4.6c-0.1-0.7-1-6-0.6-2.7c-10.2,2.8-20.5,5.6-30.7,8.3c0.9,1.5,1.7,3,2.5,4.5c1.6,3,0-0.7,1,2.3
			c1.2,3.5,2.2,7,2.8,10.7c0.2,1.2,0.2,1.1,0-0.2c0.1,0.8,0.1,1.7,0.2,2.5c0.1,1.7,0.1,3.4,0,5.1c0,0.7,0.2,5.4-0.2,3.5
			c0.2-1.2,0.1-1-0.2,0.4c0.7-2.3,2.1-4.1,4.2-5.6c2.8-0.8,5.6-1.5,8.3-2.3c0.5-0.1,2.2,1.3,0.5,0.3c-1.6-1,0,0.1,0.4,0.3
			c-1.4-0.6-2.7-1.4-4-2.2c-2.5-1.4,0.6,0.9-1.5-1c-0.5-0.5-1.1-1-1.6-1.6c-0.2-0.2-2.1-2.5-1.1-1.2c0.7,1-1.3-2.2-1.6-2.9
			c-0.9-1.7,0-0.1,0.1,0.2c-0.2-0.7-0.3-1.6-0.7-2.3c-0.7-1.5-0.1-0.2-0.1,0.4c-0.1-0.8-0.1-1.6-0.1-2.4c0-0.8,0-1.6,0.1-2.4
			c-0.3,2-0.1,0.5,0.4-0.3c-0.2,0.3-1.3,2-0.2,0.6c1.9-2.4-5.5,3.6-5.1,3.5c-0.6,0.2-1.6,0.1-2.1,0.3c-2.2,0.9,1.1-0.4,0.6,0.4
			c-0.2,0.3-2.3-1.5-0.7-0.2c0.5,0.4,1.2,0.7,1.8,1.1c-0.3-0.2-1.9-1.6-0.6-0.3c1.6,1.7-1-2.1,0.1-0.1c0.3,0.6,0.7,1.2,1.1,1.8
			c-0.9-1.4,0.1-0.9-0.3-0.7c-0.2,0.2,0.4,1.2,0.2,0c0.2,1.1,0.1,2.6,0,3.8c-0.1,2.4,0.1,0.8-0.5,3.1c-0.2,0.7-0.5,1.6-0.6,2.3
			c-0.1,1.5,0.1-0.1,0.6-0.8c1.2-1.8,0.5-0.6-1.1,0.2c-0.7,0.4-1.4,0.7-2.2,1.1c0.3-0.1,2-0.7,0.2-0.1c-1.5,0.6-3.1,0.9-4.7,1.4
			c-2,0.5,0.1-0.1,0.5-0.1c-1.4-0.2-1.9-0.1-0.2,0.1c0.1,0,2.2,1,0.4,0.2c-1.6-0.8,0.2,0.1,0.5,0.4c1.8,1.9-0.2-0.4-0.8-1.4
			c1.4,2.4-0.1-0.8-0.3-1.9c0.1,0.3,0.2,1.9,0-0.1c-0.1-1.2-0.2-2.4-0.2-3.6c0-1.8-0.1-3.6,0-5.3c0-0.2,0-2.3,0.1-2.3
			c0.1,0-0.3,1.9-0.4,2.1c-0.9,2.1-1.2,1.6,0.4-0.1c1.9-1.9,1.7-1.4-0.5-0.4c1.1-0.5,3.4-0.4-0.8-0.4c-1,0-2.4-0.5-3.2-0.5
			c-0.1,0-1.8-1.7-0.3-0.2c1.6,1.6-0.4-0.5-0.3-0.6c0,0,1.3,2.5,0.4,0.5c-0.8-1.8,0,0.3,0.1,0.6c0.1,0.5,0.2,2.5,0.1,0.6
			c0-2.1-0.2,0.9-0.2,1.3c0,1.9,0-0.6,0.1-0.9c-0.3,0.6-0.4,1.4-0.6,2c-0.5,1.9,0.1-0.7,0.3-0.7c-0.1,0-1.3,2.2-0.3,0.7
			c1.1-1.6-2.7,2.6-1.2,1.3c1.3-1.1-0.5,0.3-0.7,0.4c-0.9,0.5-1.7,1-2.6,1.4c2.4-1.2-0.7,0.1-1.7,0.3c-3,0.9,1.6,0-1.5,0.2
			c-2.2,0.1-1.2,0.3,0.4,0.7c0.5,0.1,1.2,1.6,0.2,0.1c-0.1-0.2-2.3-2.5-1.2-1.2c1.1,1.3-0.4-0.6-0.5-0.8c-0.5-0.9-1-1.8-1.5-2.6
			c1.3,2.2-0.2-0.5-0.5-1.6c-0.3-1.2-0.5-4.3-0.5-1.5c0-0.7-0.1-1.5-0.1-2.2c0-0.3,0.1-3.5-0.1-1.5c-0.1,1.6,0.7-2.2,0.8-2.9
			c0.2-1.6-0.2,0.1-0.4,0.6c0.3-0.7,0.6-1.3,1-1.9c0.3-0.6,2.4-3.7,1.5-2.5c-1.1,1.4,0.4-0.4,0.5-0.5c0.7-0.7,1.3-1.3,2-2
			c2.1-2-1.3,0.6,1.2-0.8c1.1-0.6,3.8-1.6,1.2-0.8c0.6-0.2,1.5-0.3,2-0.7c1.8-1.1-5.5-1-6.3-1.5c-1.3-0.8-3.1-2.8-3.7-4.2
			c-0.5-1.1-0.1-2.4-0.4-3.4c-0.4-1,0,0-0.3,0.9c0.1-0.3,0.9-2,0.1-0.2c-0.6,1.4-1.4,2.7-2.1,4c-0.4,0.6-0.8,1.2-1.1,1.9
			c0.2-0.3,1.7-1.6,0.4-0.5c-1.5,1.3,0.6-0.3,0.7-0.4c2-0.6,4.2-1.2,6.3-0.8c0.5,0.1,4.3,1.8,3.6,2.7c0,0-2.3-4.3-1-1.2
			c-0.6-1.5-1-3.1-1.4-4.7c0-0.1-0.4-2.7-0.2-1c0.2,1.6,0-1.6,0-1.9c0-0.8,0-1.6,0-2.4c0-0.2,0.4-2.7,0.1-1c-0.3,1.7,0.3-0.9,0.3-1
			c0.2-0.8,0.5-1.6,0.7-2.3c0.5-1.8,0-0.2-0.2,0.2c0.3-0.7,0.7-1.3,1-1.9c0.5-0.9,3-4.2,1.1-2.1c1.1-1.3,2.4-2.4,3.6-3.7
			c1.2-1.3-0.2,0.1-0.5,0.3c0.8-0.6,1.6-1.1,2.4-1.6c0.6-0.4,1.3-0.6,1.9-1.1c1.8-1.2-2,0.5,0.1-0.1c0.7-0.2,1.4-0.4,2.1-0.7
			c2.8-1.1-2.1-0.1-0.2,0c1.9,0.1-1.3-0.3-1.4-0.4c2.2,0.5,0,0-0.8-0.5c-0.8-1.1-1.7-2.2-2.5-3.3c-2.6-1.9-3.3-4.3-2-7.2
			c0.3-2.6,0-4.3,1.9-5.9c0.6-0.5,1.2-0.6,1.9-1.1c-1.5,0.9-1.3-0.1,0.3,0.1c-0.6-0.1-1.5-0.1-2.1,0c-2,0.1,2,0.8,0.2-0.1
			c-0.5-0.3-1.4-0.4-2-0.6c1.4,0.3,1.6,0.8,0.1,0c-0.6-0.3-1.2-0.8-1.8-1.1c-1.8-0.9,1.3,1.5,0,0c-0.8-0.9-3-3.9-1.6-1.4
			c-0.3-0.5-0.7-1.3-1.1-1.8c-1.3-1.5,0.4,2-0.1,0.1c-0.2-0.7-0.4-1.3-0.6-2c-0.5-1.9,0.3-1.1,0,0.1c-0.3,1.4-0.5,1.7-1.3,3.1
			c-0.6,1-2.7,2.8-1.4,2c0.7-0.4,1.4-0.9,2.2-1.3c0.6-0.4,2.3-1.1,0.7-0.5c0.8-0.3,1.6-0.6,2.4-0.8c0.5-0.1,4.1-0.9,1.4-0.5
			c8.5-1.1,16.9-6.8,16.5-16.5C345.6,246.5,338.6,236.8,329.5,238L329.5,238z"/>
	</g>
</g>
<g id="XMLID_386_">
	<g id="XMLID_460_">
		<path id="XMLID_464_" class="st0" d="M371.7,446.9c5.6-19.2,6.8-39.6,5.2-59.5c-0.7-8.3-5.8-15.1-14.3-16.2
			c-7.9-1.1-16.1,3.8-18.1,11.8c-4.7,18.5-4.6,37.8,0.5,56.2c4.2,15.2,28.1,16.2,31.8,0c4.1-18.3,6.6-37,7.2-55.7
			c0.3-8.6-7.8-16.9-16.5-16.5c-9.3,0.4-16,7.3-16.5,16.5c-0.1,1.2-0.9,4.3,0.1,0.4c-0.3,1-0.4,2.1-0.6,3.1
			c-0.5,2.4-1.2,4.7-1.8,7.1c-1.5,5.7-2.9,11.4-3.5,17.4c-1.5,14.1,4.3,25.5,15.5,33.8c6.9,5.1,18.8,1.4,22.6-5.9
			c5.1-9.9,5.3-19.9,5.3-30.8c0-8.6-7.6-16.9-16.5-16.5c-8.9,0.4-16.5,7.3-16.5,16.5c0,3.3,0.2,6.5,0,9.8c0,0.8-0.9,5-0.2,2.1
			c-0.2,0.6-1.8,4.5-0.7,2.3c7.5-2,15.1-3.9,22.6-5.9c1.2,0.9,1.3,1.1,0.2-0.1c2.3,2.6,0.5,0.9,0.1-0.1c-0.9-2,1.5,2.4,0.4,0.7
			c-0.2-0.6-0.3-1.1-0.4-1.7c0.1,0.7,0.2,1.4,0.3,2c-0.4-0.2,0.2-6.7,0-4c-0.2,2.3,0.1-0.5,0.2-1c0.2-1.1,0.4-2.2,0.7-3.2
			c2-8.7,4.7-17,5.2-25.9c-11,0-22,0-33,0c-0.6,17-2.2,30.4-6,47c10.6,0,21.2,0,31.8,0c-3.6-13-3.8-25.8-0.5-38.7
			c-10.8-1.5-21.6-2.9-32.4-4.4c0.7,9,1,18,0.3,27c-0.1,2.2-0.3,4.3-0.6,6.5c-0.2,2.1-0.3,2.5-0.1,1.1c-0.1,0.9-0.3,1.8-0.5,2.7
			c-0.8,4.5-1.9,9-3.1,13.4c-2.4,8.3,2.9,18.3,11.5,20.3C360.2,460.4,369.1,455.8,371.7,446.9L371.7,446.9z"/>
	</g>
</g>
<g id="XMLID_385_">
	<g id="XMLID_454_">
		<path id="XMLID_458_" class="st0" d="M356.3,434.6c0.2-1.7,0.4-3.4,0.6-5c0-0.4,0.7-5.2,0.3-2.4c0.5-3.7,1.1-7.3,1.9-10.9
			c0.7-3.3,1.6-6.6,2.8-9.8c0.3-0.8,0.6-1.6,0.9-2.4c-0.4,1.1-0.4,1.1,0,0.1c0.9-1.8,1.8-3.5,2.9-5.2c-10.1-4.2-20.1-8.5-30.2-12.7
			c-3.3,17-4.7,34.2-3.5,51.4c0.6,8.6,7.2,16.9,16.5,16.5c8.4-0.4,17.1-7.3,16.5-16.5c-1-15-0.2-29.4,2.3-42.6
			c1.6-8.2-1.6-16.1-9.6-19.5c-7.6-3.2-16.3-0.3-20.6,6.8c-9.6,16-11.8,34.2-13.9,52.3c-1,8.6,8.3,16.9,16.5,16.5
			C349.7,450.7,355.3,443.9,356.3,434.6L356.3,434.6z"/>
	</g>
</g>
<g id="XMLID_384_">
	<g id="XMLID_448_">
		<path id="XMLID_452_" class="st0" d="M333.5,442c3.6-12.2,6.8-24.5,9.7-37c-10.8-1.5-21.6-2.9-32.4-4.4c1.5,11.7-0.5,23.3-1.6,35
			c-0.8,8.6,8.2,16.9,16.5,16.5c9.6-0.4,15.6-7.3,16.5-16.5c1.1-11.7,3-23.2,1.6-35c-1-8.3-5.5-15-14.3-16.2
			c-7.8-1-16.2,3.8-18.1,11.8c-2.9,12.4-6.1,24.7-9.7,37c-2.4,8.3,2.9,18.3,11.5,20.3C322.1,455.6,330.9,450.9,333.5,442L333.5,442z
			"/>
	</g>
</g>
<g id="XMLID_383_">
	<g id="XMLID_442_">
		<path id="XMLID_446_" class="st0" d="M312.6,451c3.5-11.6,5.6-23.5,6.9-35.5c-11,0-22,0-33,0c-0.8,9.9-1.5,19.8-1.6,29.7
			c-0.1,8.6,7.7,16.9,16.5,16.5c9-0.4,16.4-7.2,16.5-16.5c0.1-9.9,0.8-19.8,1.6-29.7c0.7-8.6-8.1-16.9-16.5-16.5
			c-9.8,0.4-15.5,7.3-16.5,16.5c-0.3,2.1-0.3,2.5-0.1,1.2c-0.2,1.2-0.4,2.5-0.6,3.7c-0.4,2.5-0.9,4.9-1.4,7.4
			c-1,4.9-2.3,9.7-3.7,14.5c-2.5,8.3,3,18.3,11.5,20.3C301.2,464.5,310,459.8,312.6,451L312.6,451z"/>
	</g>
</g>
<g id="XMLID_382_">
	<g id="XMLID_436_">
		<path id="XMLID_440_" class="st0" d="M293.5,453.8c1.6-9,2.9-18,3.9-27c-11,0-22,0-33,0c-0.3,7.2-0.5,14.4-0.3,21.6
			c0.2,8.6,7.5,16.9,16.5,16.5c8.8-0.4,16.7-7.3,16.5-16.5c-0.2-7.2,0.1-14.4,0.3-21.6c0.3-8.6-7.8-16.9-16.5-16.5
			c-9.8,0.4-15.4,7.3-16.5,16.5c-0.2,1.8-0.4,3.5-0.6,5.2c0.3-2.7-0.4,2.6-0.4,2.6c-0.5,3.5-1.1,7-1.7,10.4
			c-1.5,8.5,2.3,18.2,11.5,20.3C281.3,467.2,291.9,462.9,293.5,453.8L293.5,453.8z"/>
	</g>
</g>
<g id="XMLID_381_">
	<g id="XMLID_430_">
		<path id="XMLID_434_" class="st0" d="M276.1,458.7c2.6-6.4,4.9-12.8,7.1-19.4c-10.8-1.5-21.6-2.9-32.4-4.4
			c0,5.6,0.3,11.2,0.8,16.8c0.8,8.6,7,16.9,16.5,16.5c8.3-0.4,17.3-7.3,16.5-16.5c-0.5-5.6-0.8-11.2-0.8-16.8
			c0-8.2-6.3-15.1-14.3-16.2c-8.3-1.1-15.5,3.9-18.1,11.8c-2.1,6.5-4.5,13-7.1,19.4c-3.2,8,3.5,18.5,11.5,20.3
			C265.3,472.4,272.6,467.3,276.1,458.7L276.1,458.7z"/>
	</g>
</g>
<g id="XMLID_380_">
	<g id="XMLID_424_">
		<path id="XMLID_428_" class="st0" d="M257.8,463.5c3.3-8.1,5.7-16.4,7.2-25c-10.8-1.5-21.6-2.9-32.4-4.4
			c-0.7,9.3,0.2,18.5,1.8,27.7c1.5,8.5,12.4,14.1,20.3,11.5c9.2-3,13.2-11.2,11.5-20.3c0,0.1-0.7-5.2-0.5-2.8
			c-0.2-1.8-0.3-3.6-0.4-5.4c-0.2-3.6-0.1-7.2,0.2-10.8c0.6-8.2-6.7-15.2-14.3-16.2c-7.4-1-16.7,3.7-18.1,11.8
			c-1.5,8.6-3.8,16.9-7.2,25c-3.3,8,3.6,18.5,11.5,20.3C247.1,477.3,254.3,472.1,257.8,463.5L257.8,463.5z"/>
	</g>
</g>
<g id="XMLID_379_">
	<g id="XMLID_418_">
		<path id="XMLID_422_" class="st0" d="M235.8,466.9c4.6-8.7,8.4-18,11.1-27.5c-10.8-1.5-21.6-2.9-32.4-4.4
			c-0.7,8.7-1.3,17.3-0.5,25.9c0.8,8.6,7,16.9,16.5,16.5c8.2-0.4,17.4-7.3,16.5-16.5c-0.8-8.7-0.2-17.3,0.5-25.9
			c0.7-8.2-6.8-15.2-14.3-16.2c-8-1.1-15.9,3.8-18.1,11.8c-2.3,8.2-4,12.6-7.7,19.6c-4,7.6-2.2,18.3,5.9,22.6
			C220.8,476.9,231.5,475.1,235.8,466.9L235.8,466.9z"/>
	</g>
</g>
<g id="XMLID_378_">
	<g id="XMLID_412_">
		<path id="XMLID_416_" class="st0" d="M214.1,468.3c2.2-5.2,4.1-10.4,5.9-15.8c0.3-1,0.7-2,1-3c0.4-1.1,0.9-2,0.1-0.4
			c1.1-2.4,2.4-4.6,4-6.8c-10.2-2.8-20.5-5.6-30.7-8.3c-0.2,10.1,0.8,20.1,2.3,30.1c1.3,8.6,12.5,14.1,20.3,11.5
			c9.3-3,12.9-11.1,11.5-20.3c-0.5-3.3-0.1,0.2-0.4-2.9c-0.2-2.1-0.4-4.3-0.5-6.4c-0.2-4-0.3-8-0.2-12c0.1-7-5.2-14.3-12.1-15.9
			c-7.7-1.8-14.1,1.4-18.6,7.6c-3.3,4.6-5.5,9.8-7.5,15.1c-0.7,2-1.4,4-2,6c-0.4,1.2-0.8,2.5-1.3,3.7c-0.2,0.5-1.5,3.8-0.3,1.2
			c-3.4,7.9-2.6,18.1,5.9,22.6C198.6,478,210.4,476.8,214.1,468.3L214.1,468.3z"/>
	</g>
</g>
<g id="XMLID_377_">
	<g id="XMLID_406_">
		<path id="XMLID_410_" class="st0" d="M201.3,455.1c1.5-5.9,2.8-11.9,3.7-17.9c-10.8-1.5-21.6-2.9-32.4-4.4c0.5,6,1.1,12,1.6,18
			c0.8,8.6,7,16.9,16.5,16.5c8.3-0.4,17.3-7.3,16.5-16.5c-0.5-6-1.1-12-1.6-18c-0.7-8.3-5.7-15-14.3-16.2c-7.3-1-16.9,3.7-18.1,11.8
			c-0.9,6-2.2,12-3.7,17.9c-2.2,8.3,2.8,18.3,11.5,20.3C189.6,468.6,198.9,464,201.3,455.1L201.3,455.1z"/>
	</g>
</g>
<g id="XMLID_376_">
	<g id="XMLID_400_">
		<path id="XMLID_404_" class="st0" d="M191.4,455.7c1.7-6.6,2.6-13.4,2.4-20.2c-0.2-8.2-6.1-15.1-14.3-16.2
			c-7.6-1-16.4,3.7-18.1,11.8c-1.4,6.7-2.2,13.6-2.1,20.4c0.1,8.6,7.5,16.9,16.5,16.5c8.9-0.4,16.6-7.3,16.5-16.5c0-2.5,0-5,0.3-7.4
			c0-0.4,0.1-0.8,0.1-1.2c0.2-1.9,0.2-1.6-0.1,0.7c-0.2-1,0.5-2.7,0.7-3.7c-10.8-1.5-21.6-2.9-32.4-4.4c0,1.2,0,2.5,0,3.7
			c0,0.3-0.4,3.6-0.3,3.7c0.1-0.6,0.2-1.3,0.3-1.9c-0.1,0.8-0.3,1.6-0.4,2.4c-0.2,1.2-0.5,2.4-0.8,3.6c-2.2,8.3,2.8,18.3,11.5,20.3
			C179.7,469.2,189,464.6,191.4,455.7L191.4,455.7z"/>
	</g>
</g>
<g id="XMLID_375_">
	<g id="XMLID_394_">
		<path id="XMLID_398_" class="st0" d="M173.8,461.3c4.4-10.5,7.1-20.7,7.5-32.2c-11,0-22,0-33,0c-0.3,9.2,0.7,18.4,2.4,27.4
			c1.6,8.5,12.3,14.1,20.3,11.5c9.1-2.9,13.3-11.2,11.5-20.3c-0.3-1.7-0.7-3.5-0.9-5.3c0.3,2.6-0.2-2.8-0.2-2.7
			c-0.3-3.6-0.3-7.1-0.2-10.7c0.3-8.6-7.8-16.9-16.5-16.5c-9.2,0.4-16.2,7.2-16.5,16.5c-0.1,1.8-0.1,3.5-0.3,5.3
			c0.3-2.7-0.5,2.5-0.5,2.5c-0.4,1.7-0.8,3.4-1.4,5.1c-0.1,0.4-1.7,4.9-0.8,2.6c-3.3,7.9-2.7,18,5.9,22.6
			C158.3,470.9,170.3,469.8,173.8,461.3L173.8,461.3z"/>
	</g>
</g>
<g id="XMLID_374_">
	<g id="XMLID_388_">
		<path id="XMLID_392_" class="st0" d="M159.4,463.8c7.5-12.1,9.2-26.2,14-39.4c-10.6-2.9-21.2-5.8-31.8-8.8
			c-0.4,1.6-0.8,3.2-1.1,4.8c-0.4,2.3-2,3,1.1-2c10.2,2.8,20.5,5.6,30.7,8.3c0,1.9-1,5.8-0.1,2c0.3-1.5,0.8-2.9,1.2-4.3
			c-10.6-2.9-21.2-5.8-31.8-8.8c-2.7,12.6-3.9,25.4-3.1,38.3c0.5,8.6,7.2,16.9,16.5,16.5c8.5-0.4,17-7.3,16.5-16.5
			c-0.3-5.4-0.3-10.7,0-16.1c0.4-5.7,0.7-7.6,2-13.4c1.8-8.4-2.5-18.2-11.5-20.3c-8.9-2-17.7,2.7-20.3,11.5c-1,3.4-2.3,7.5-2.3,11.1
			c0.3,16.5,22.1,22.3,30.7,8.3c1.9-3.1,2.5-7.2,3.3-10.7c1.9-8.4-2.5-18.3-11.5-20.3c-9.3-2.1-17.1,2.8-20.3,11.5
			c-2.1,5.7-3.5,11.6-5.1,17.5c-0.7,2.6-1.5,5.2-2.4,7.8c-1.5,4.5,1.4-2.2-0.8,2c-0.7,1.4-1.5,2.8-2.4,4.2
			c-4.6,7.3-1.8,18.5,5.9,22.6C144.9,474,154.5,471.7,159.4,463.8L159.4,463.8z"/>
	</g>
</g>
<g id="XMLID_368_">
	<g id="XMLID_369_">
		<path id="XMLID_373_" class="st0" d="M121.5,449c9.2-13.8,17.6-28.1,25.1-42.9c-9.5-5.6-19-11.1-28.5-16.7
			c-8.9,19.7-16.4,41.6-9,63.1c2.2,6.3,6.9,10.9,13.7,11.8c6,0.8,13.6-2,16.4-7.9c7.1-14.8,12.2-30.2,14.6-46.5
			c-10.8-1.5-21.6-2.9-32.4-4.4c0.3-2.8-0.6,3.4-0.8,4.1c-0.5,2.3-1.1,4.5-1.6,6.7c-1,3.9-2.2,7.8-3.1,11.7
			c-2.5,10.4-3.1,20.3-1.7,30.9c1.2,8.7,12.7,13.8,20.3,11.5c10.6-3.2,16.2-11.9,18.9-22.2c2.4-9,5-17.9,7.6-26.8
			c-10.8-1.5-21.6-2.9-32.4-4.4c-0.8,12.7-1.3,25.3-1.5,38c-0.2,8.6,7.7,16.9,16.5,16.5c9.1-0.4,16.3-7.2,16.5-16.5
			c0.3-12.7,0.8-25.3,1.5-38c0.5-8.2-6.7-15.2-14.3-16.2c-8.1-1.1-15.8,3.9-18.1,11.8c-2.2,7.6-4.5,15.1-6.5,22.7
			c-0.6,2.1-1.2,4.3-1.7,6.4c-0.7,2.9,1.1-1.5,0.1-0.1c-0.6,1.1-0.3,0.7,1-1c1.1-0.9,2.3-1.6,3.6-2.1c6.8,3.8,13.5,7.7,20.3,11.5
			c0.3,2.5,0.1-3.6,0.2-4.2c0-0.1,0.6-5.3,0.2-2.4c0.6-4,1.6-7.9,2.7-11.8c2.3-8.7,4.4-17.2,5.4-26.2c0.9-8.1-7-15.2-14.3-16.2
			c-7.3-1-16.9,3.7-18.1,11.8c-1,7.1-2.5,14.1-4.6,20.9c-2.1,7.1-4.2,12.4-6.7,17.7c10.1,1.3,20.1,2.6,30.2,3.9
			c-0.8-2.2-1.5-4.4-1.8-6.8c0.4,2.7-0.1-2.1-0.1-2.5c0-1.7,0.1-3.5,0.2-5.2c0.2-2,0.2-2.3,0.1-0.8c0.1-0.9,0.3-1.7,0.5-2.6
			c0.8-3.7,1.9-7.4,3.2-11c0.6-1.7,1.2-3.3,1.9-4.9c0.8-1.9,0.9-2.2,0.4-0.9c0.5-1,0.9-2.1,1.4-3.1c3.5-7.8,2.5-18.1-5.9-22.6
			c-7.5-4-18.4-2.3-22.6,5.9c-7.5,14.8-15.8,29.1-25.1,42.9c-4.8,7.2-1.6,18.6,5.9,22.6C107.2,459.3,116.4,456.6,121.5,449
			L121.5,449z"/>
	</g>
</g>
<g id="XMLID_202_">
	<g id="XMLID_362_">
		<path id="XMLID_366_" class="st0" d="M112.6,445.7c10.8-16.2,19.2-33.8,25.4-52.2c2.7-8.1-3.2-18.5-11.5-20.3
			c-15.9-3.4-27.5,7.8-34.2,21c-6.8,13.4-10.4,28.3-8.6,43.4c1,8.5,6.8,16.9,16.5,16.5c8.1-0.4,17.6-7.3,16.5-16.5
			c-0.3-2.7-0.5-5.4-0.5-8.1c0-1.5,0.1-3,0.2-4.5c-0.2,1.7,0-0.4,0.1-1c0.6-3,1.3-5.9,2.3-8.7c0-0.1,0.9-2.4,0.9-2.4
			c0.1,0.1-2,4.3-0.4,1c1.5-3.2,3.5-6,5-9.1c0.9-1.7-1.8,1.7-0.4,0.5c0.1-0.1,1.8-2.1,1.9-2c0.1,0.1-3.1,2-0.8,0.8
			c-2.4,1.3-4.7,1.5-7.3,1c-3.8-6.8-7.7-13.5-11.5-20.3c-1.3,4-2.8,7.9-4.3,11.8c-0.8,1.9-0.9,2.2-0.4,1c-0.5,1.1-1,2.2-1.5,3.3
			c-0.9,1.9-1.8,3.8-2.7,5.7c-3.9,7.8-8.3,15.3-13.1,22.5c-4.8,7.2-1.6,18.6,5.9,22.6C98.3,456.1,107.4,453.4,112.6,445.7
			L112.6,445.7z"/>
	</g>
</g>
<g id="XMLID_192_">
	<g id="XMLID_356_">
		<path id="XMLID_360_" class="st0" d="M107.6,449.2c12.7-12.6,18-30.3,21.9-47.3c4.3-18.6-7.8-42.2-29.9-35.8
			c-31.6,9.1-42,50.1-31.3,77.9c3.1,8,11.2,14.5,20.3,11.5c7.8-2.5,14.8-11.7,11.5-20.3c-0.9-2.3-1.6-4.6-2.2-7c-0.2-1-0.3-2-0.6-3
			c-0.3-1.2,0.1,3.2,0-0.6c-0.1-2.3-0.2-4.6-0.1-6.9c0.1-1,0.6-4.9-0.1-0.6c0.2-1,0.3-2,0.6-3.1c0.5-2.2,1.2-4.4,1.9-6.5
			c1.3-3.7-1.7,2.9,0.3-0.5c0.6-1,1.1-2.1,1.8-3.1c0.3-0.4,2.3-3.2,0.8-1.3c-1.6,1.9,0.7-0.7,1-1c0.8-0.9,1.8-1.6,2.6-2.4
			c-2.6,2.6-0.5,0.4,0.6-0.2c0.9-0.5,1.9-0.9,2.7-1.5c1.1-0.5,0.7-0.4-1,0.4c2.1-0.5,1.5-0.6-1.8-0.3c-2.8,0-5.1-0.3-7.2-2.3
			c-1.4-2-1.8-2.4-1.2-1.3c0.6,1.1,0.3,0.6-0.7-1.6c0.2,0.5,0.3,1,0.4,1.5c0.3,1.3,0.2,0.7-0.2-1.8c-0.2,0.2,0,2.2,0,2.5
			c-0.1,1.1-0.1,0.6,0-1.5c-0.2,0.8-0.4,1.5-0.6,2.3c-0.3,1.3-0.6,2.5-1,3.8c-1.4,5.5-3,11-5,16.3c1.1-3-0.4,1-0.8,1.6
			c-0.7,1.3-1.4,2.7-2.2,3.9c-0.4,0.6-2.9,4-0.9,1.5c-1,1.2-2,2.3-3.1,3.3c-6.1,6.1-6.6,17.3,0,23.3
			C90.9,455.3,101.1,455.7,107.6,449.2L107.6,449.2z"/>
	</g>
</g>
<g id="XMLID_187_">
	<g id="XMLID_350_">
		<path id="XMLID_354_" class="st0" d="M92.7,374.8c-14.2,9.5-21.7,24.6-24.5,41.2c-2.9,17.1,5.4,39.9,26.4,38.5
			c8.6-0.6,16.9-7.2,16.5-16.5c-0.4-8.4-7.3-17.1-16.5-16.5c-2.8,0.2,1,0.3,2.1,0.8c1.5,0.6,2.2,1.5,3.4,2.6
			c0.8,1.2,0.8,1.1,0.1-0.1c0.3,0.6,0.5,1.3,0.8,1.9c-0.3-0.1-0.6-1.9-0.7-2.2c-0.9-2.9-0.3,1.7,0,0.4c0.2-0.6,0.1-2.1,0-2.7
			c0,1.4-0.5,2.8,0,0.6c0.3-1.2,0.5-2.3,0.7-3.5c0.5-2.1,1.1-4.2,1.8-6.2c0.3-0.9,0.6-1.8,1-2.7c-0.9,2.2-0.2,0.6,0.4-0.6
			c0.4-0.8,0.9-1.7,1.4-2.5c0.7-1.2,1.9-2.4,0.4-0.7c0.6-0.7,1.3-1.4,2-2.1c2.9-3.1-2.3,1.4,1.3-1c7.2-4.8,11-14.8,5.9-22.6
			C110.7,373.6,100.4,369.6,92.7,374.8L92.7,374.8z"/>
	</g>
</g>
<g id="XMLID_124_">
	<g id="XMLID_344_">
		<path id="XMLID_348_" class="st0" d="M57.3,457.4c0.8-5.1,1.4-10.2,1.9-15.3c0.2-2,0.4-4,0.6-6c0-0.3,0.4-3.4,0.2-1.5
			c-0.3,2.1,0.4-2.3,0.4-2.3c0.7-3.9,1.6-7.7,2.8-11.4c0.5-1.4,0.6-1.5-0.1-0.1c0.5-1.1,1-2.2,1.6-3.2c0.5-0.8,1.1-1.6,1.5-2.5
			c1.2-2.1-2.3,2.6,0.6-0.7c5.7-6.5,6.8-17.1,0-23.3c-6.3-5.7-17.2-6.9-23.3,0c-7.5,8.5-12.3,18.5-14.5,29.6
			c-1.1,5.4-1.7,10.8-2.3,16.2c-0.3,2.5-0.5,5-0.8,7.4c-0.1,1-0.2,2-0.3,2.9c-0.5,4.8,0.5-3.4-0.2,1.4c-1.3,8.5,2.1,18.2,11.5,20.3
			C44.8,470.7,55.9,466.5,57.3,457.4L57.3,457.4z"/>
	</g>
</g>
<g id="XMLID_185_">
	<g id="XMLID_338_">
		<path id="XMLID_342_" class="st0" d="M144.7,471.2c12.5-8.1,25.2-15.9,38.1-23.5c7.4-4.4,10.8-15.1,5.9-22.6
			c-4.8-7.5-14.6-10.6-22.6-5.9c-12.9,7.5-25.5,15.4-38.1,23.5c-7.2,4.7-10.9,14.8-5.9,22.6C126.8,472.5,137,476.2,144.7,471.2
			L144.7,471.2z"/>
	</g>
</g>
<g id="XMLID_180_">
	<g id="XMLID_332_">
		<path id="XMLID_336_" class="st0" d="M126.9,470.7c16.6,0.4,33.3-4.2,47.2-13.3c6.9-4.5,10-12.8,6.8-20.6
			c-2.9-6.8-11.8-12.7-19.5-9.6c-1.2,0.5-2.4,1-3.5,1.5c7,5.3,13.9,10.6,20.9,15.9c0.6-8.4-3.8-16-10.5-20.7
			c-6.4-4.4-13.9-4.8-21.3-3.6c-12.8,2.2-25.1,6-36.7,11.8c-7.7,3.9-10.5,15.4-5.9,22.6c5.1,7.9,14.3,10.1,22.6,5.9
			c3.2-1.6,3.6-1.8,7.6-3.2c3.4-1.2,6.9-2.2,10.5-3c1.7-0.4,9.2-3.1,10.7-2.2c-1.5,0-3,0-4.5-0.1c1.5,0.4,1.6,0.4,0.3,0
			c-1.9-0.6-3.4-1.9-4.4-3.9c-0.8-5.4-1.3-6.6-1.4-3.6c-0.7,9.8,11.3,19.9,20.9,15.9c1.2-0.5,2.4-1,3.5-1.5
			c-4.2-10.1-8.5-20.1-12.7-30.2c-2.6,1.7-5.3,3.3-8.2,4.7c-1,0.5-1,0.5,0,0.1c-0.5,0.2-1.1,0.4-1.6,0.6c-1.6,0.6-3.2,1.1-4.9,1.6
			c-7.1,2-8.5,2-15.9,1.9c-8.6-0.2-16.9,7.7-16.5,16.5C110.8,463.3,117.6,470.5,126.9,470.7L126.9,470.7z"/>
	</g>
</g>
<g id="XMLID_118_">
	<g id="XMLID_326_">
		<path id="XMLID_330_" class="st0" d="M69.4,415.4c3,1.8,5.9,3.8,8.8,5.8c1.4,1,2.4,1.9,5,3.9c5.9,4.7,11.8,9.5,18,13.8
			c11.6,7.8,24.3,13.7,37.4,18.3c-1.3-10.1-2.6-20.1-3.9-30.2c-2.4,1-4.8,2-7.1,3.1c-2.1,0.9-2.4,1-0.8,0.4c-1.5,0.6-3,1.3-4.6,1.9
			c-5.1,2.3-8.5,5.8-11.8,10.1c-5.3,6.9-1.3,18.8,5.9,22.6c8.7,4.6,17,1.4,22.6-5.9c-3.4,4.4-3.7,3.6-0.6,2
			c-3.6,1.9,1.6-0.7,3.4-1.4c3.3-1.4,6.5-2.8,9.8-4.2c5.9-2.5,8.7-10.7,7.9-16.4c-0.9-6.8-5.5-11.5-11.8-13.7
			c-10.2-3.6-20.6-8.8-31-16c-1.2-0.8-2.4-1.7-3.6-2.6c-0.5-0.4-0.9-0.7-1.4-1.1c0.8,0.6,0.7,0.6-0.1-0.1c-2.5-2-5-4.1-7.6-6.1
			c-5.7-4.5-11.4-9-17.7-12.7c-7.4-4.4-18.4-1.9-22.6,5.9C59.3,400.7,61.4,410.7,69.4,415.4L69.4,415.4z"/>
	</g>
</g>
<g id="XMLID_165_">
	<g id="XMLID_320_">
		<path id="XMLID_324_" class="st0" d="M294,249.1c4.1-0.1,8.1,0.1,12.1,0.5c-2.8-0.3,2.5,0.4,2.5,0.4c2,0.4,4,0.8,5.9,1.3
			c3.7,0.9,7.2,2.1,10.8,3.4c3.2,1.1-0.3-0.3,2.5,1c2.1,1,4.2,2,6.2,3.2c7.6,4.1,18.3,2.1,22.6-5.9c4.1-7.8,2.1-18-5.9-22.6
			c-3.4-1.9-6.7-3.8-10.1-5.7c-5.6,9.5-11.1,19-16.7,28.5c5.8,3.3,11.6,6.5,17.4,9.8c7.5,4.2,18.4,2,22.6-5.9
			c4.4-8.3,1.8-17.5-5.9-22.6c-2-1.4-4.1-2.7-6.1-4.1c-2.8,10.2-5.6,20.5-8.3,30.7c-2.2,0.1-4-0.6-5.3-2.1c1.3,1.4,1.4,1.4,0.3,0
			c1.2,1.5,2.1,3.3,3.1,4.9c3.3,5,6.7,8.9,11.8,12.1c7.3,4.6,18.5,1.8,22.6-5.9c4.3-8.2,1.9-17.6-5.9-22.6c3.3,2.1-0.8-1.1,0.5,0.4
			c1.3,1.6-0.9-1.6-1.2-1.9c-1.8-2.9-3.6-5.6-5.8-8.2c-5.3-6.1-12.1-9.1-20-9.7c-6.9-0.6-14.4,5.5-15.9,12.1
			c-1.7,7.4,1.2,14.4,7.6,18.6c2,1.4,4.1,2.7,6.1,4.1c5.6-9.5,11.1-19,16.7-28.5c-5.8-3.3-11.6-6.5-17.4-9.8
			c-7.5-4.2-18.4-2-22.6,5.9c-4.1,7.8-2.1,18,5.9,22.6c3.4,1.9,6.7,3.8,10.1,5.7c5.6-9.5,11.1-19,16.7-28.5
			c-17.4-9.5-36.8-14.5-56.7-14.2c-8.6,0.1-16.9,7.5-16.5,16.5C277.9,241.4,284.7,249.2,294,249.1L294,249.1z"/>
	</g>
</g>
<g id="XMLID_200_">
	<g id="XMLID_313_">
		<path id="XMLID_317_" class="st0" d="M344,260.5c0.8,3.3,2.2,6.6,4.1,9.4c0.7,1.1,3.2,5.8,4.3,6.1c-0.9-0.3-0.6-4.4-0.9-1.9
			c-0.2,2.2,0.5,4.6,1.1,6.7c1.5,4.7,4.5,8.6,8.2,11.8c6.3,5.4,14.8,6.6,21.7,1.3c6.5-5,8.4-14.1,4.2-21.3c0.5,0.9,0,3.2,0.6,2.4
			c0.5-0.7-1.1-8.2-0.6-6.1c-0.9-3.8-2.6-7.2-5.5-9.9c-6-5.7-15.1-6.4-21.7-1.3c-6.1,4.7-9,14.5-4.2,21.3c1.1,1.6,2.3,3.3,3.4,4.9
			c0.5,0.7,1,1.4,1.5,2.1c2.3,3.7,2.3,1.5,0.2-6.8c-3.2,8.1,3.5,18.5,11.5,20.3c9.5,2.2,16.9-2.9,20.3-11.5
			c3.8-9.7-3.2-18.2-8.4-25.7c-8.6,6.7-17.3,13.3-25.9,20c0.2,0.2,0.5,0.5,0.7,0.7c-1.4-2.4-2.8-4.9-4.2-7.3c1,2.4,0-1.3-0.1-1.3
			c0,0,0.4,4.9,0.4,4.7c0.5,3.7,1.7,6.9,3.5,10.1c8.6-6.7,17.3-13.3,25.9-20c-0.7-0.6-1.5-1.6-2.3-2c1.9,6.5,2.7,8.2,2.4,5.1
			c0-1-0.1-2.1-0.3-3.1c-0.5-3.5-1.5-6.7-3.2-9.9c-0.9-1.6-2-3-3.1-4.5c-0.6-0.9-1.2-2-2-2.8c-1.2-1.2,0.7,2.9-0.1-0.3
			c-2-8.4-12.1-14.2-20.3-11.5C346.7,243,341.9,251.4,344,260.5L344,260.5z"/>
	</g>
</g>
<g id="XMLID_206_">
	<g id="XMLID_306_">
		<path id="XMLID_310_" class="st0" d="M363.6,296.3c0.9,1.5,1.7,2.9,2.5,4.4c0,0,2.2,4.6,1.2,2.2c1.2,2.8,2.2,5.9,3,8.8
			c1.5,5.3,3.1,13.3,3.6,17.2c1.5,10.9,2.5,26.2,3.3,38.8c0.9,13.5,1.3,27,0.6,40.6c-0.8,13.2-2.6,24.7-7.2,38.6
			c-2.7,8.2,3.1,18.4,11.5,20.3c9.1,2.1,17.4-2.7,20.3-11.5c9.5-28.9,9.7-59.7,7.7-89.8c-2-29-2.6-60.7-18-86.2
			c-4.5-7.4-15-10.8-22.6-5.9C362.1,278.5,358.8,288.4,363.6,296.3L363.6,296.3z"/>
	</g>
</g>
<g id="XMLID_186_">
	<g id="XMLID_300_">
		<path id="XMLID_304_" class="st0" d="M425.5,449c2-18.2-3.8-35.7-10.6-52.2c-3.2-7.8-6.6-15.5-9.1-23.5
			c-3.1-9.8-4.1-15.7-4.3-25.3c-0.2-8.6-7.5-16.9-16.5-16.5c-8.8,0.4-16.7,7.3-16.5,16.5c0.4,19.4,6,36.8,13.4,54.6
			c3.2,7.8,6.5,15.6,8.7,23.7c0.6,2.1,1.1,4.1,1.5,6.2c0.2,1,0.4,2.1,0.6,3.2c-0.2-1.7-0.2-1.6,0,0.4c0.3,4.4,0.3,8.7-0.2,13
			c-1,8.6,8.3,16.9,16.5,16.5C418.7,465.1,424.4,458.3,425.5,449L425.5,449z"/>
	</g>
</g>
<g id="XMLID_150_">
	<g id="XMLID_294_">
		<path id="XMLID_298_" class="st0" d="M372.9,371.2c1.6,3.2,3.2,6.5,4.7,9.8c0.8,1.6,1.5,3.3,2.2,5c-1-2.2,1.2,2.9,1.1,2.7
			c2.6,6.4,4.8,13,6.6,19.7c0.9,3.2,1.6,6.4,2.2,9.7c0.3,1.8,0.7,3.6,0.9,5.3c-0.3-2.4,0.3,2.9,0.3,2.8c0.7,7.6,0.6,15.2,0.5,22.8
			c-0.2,8.6,7.7,16.9,16.5,16.5c9.1-0.4,16.3-7.2,16.5-16.5c0.3-16.7-0.7-33.2-5.1-49.4c-4.2-15.6-10.8-30.6-17.9-45.1
			c-3.8-7.8-15.5-10.5-22.6-5.9C370.8,353.8,368.8,362.9,372.9,371.2L372.9,371.2z"/>
	</g>
</g>
<g id="XMLID_195_">
	<g id="XMLID_288_">
		<path id="XMLID_292_" class="st0" d="M428.6,449.7c-1.4-19.8-3.8-39.5-6.7-59.2c-1.4-9.3-2.8-18.5-4.4-27.7
			c-1.7-9.6-3-15.6-2.4-25.8c-10.8,1.5-21.6,2.9-32.4,4.4c2.5,12.9,5,25.9,7.6,38.8c1.6,8,10.6,12.8,18.1,11.8
			c7.9-1.1,14.4-7.9,14.3-16.2c-0.1-8.5-1.3-17.1-3.4-25.3c-2.2-8.4-11.9-14.2-20.3-11.5c-8.6,2.8-13.8,11.3-11.5,20.3
			c1.7,6.5,2.1,9.6,2.2,16.6c10.8-1.5,21.6-2.9,32.4-4.4c-2.5-12.9-5-25.9-7.6-38.8c-1.6-8-10.6-12.8-18.1-11.8
			c-8.3,1.1-13.9,7.9-14.3,16.2c-1.1,19.4,4.6,39.3,7.4,58.4c2.6,17.2,4.7,35.5,6.1,54.2c0.6,8.6,7.1,16.9,16.5,16.5
			C420.5,465.8,429.3,458.9,428.6,449.7L428.6,449.7z"/>
	</g>
</g>
<g id="XMLID_193_">
	<g id="XMLID_282_">
		<path id="XMLID_286_" class="st0" d="M374.2,319.3c0,0.3,0,0.5-0.1,0.8c0.8-2.8,1.5-5.6,2.3-8.3c-2.1,4.6-4,9.5-2.3,14.6
			c1,3.1,2.8,6.1,4.2,9c0.2,0.5,1.7,3.7,0.6,1.1c0.4,1,0.7,2,1.1,3c0.8,2.6,1.1,5.2,1.6,7.8c1.8,11.2,3,21.6,4.1,33.9
			c1.1,11.8,2,23.5,2.8,35.3c0.4,5.7,1.1,11.5,1,17.2c-0.1,6.8-0.3,13.2,1.3,19.9c2,8.4,12.1,14.2,20.3,11.5
			c8.8-2.8,13.6-11.3,11.5-20.3c-0.1-0.6-0.5-2.9-0.3-1c-0.1-1.4-0.1-2.8-0.1-4.2c0.1-2.6,0.3-5.1,0.3-7.7
			c-0.1-5.5-0.7-10.9-1.1-16.4c-0.8-11.5-1.6-22.9-2.7-34.4c-1.1-12-2.6-24-4.3-36c-0.7-5.1-1.2-10.4-2.8-15.3
			c-1.8-5.7-4.6-11-7.3-16.3c0.6,4.2,1.1,8.5,1.7,12.7c-1.6,3.3-1.4,2.7,0.7-1.9c0.3-1.7,0.5-3.4,0.7-5.2
			c0.8-8.6-8.2-16.9-16.5-16.5C381.1,303.3,375.1,310.1,374.2,319.3L374.2,319.3z"/>
	</g>
</g>
<g id="XMLID_196_">
	<g id="XMLID_276_">
		<path id="XMLID_280_" class="st0" d="M403.3,452c0.6,0.5,2,2.2,0.3-0.2c-0.9-1.2-1.1-1.5-0.6-0.8c0.2,0.3,0.4,0.6,0.5,0.9
			c-0.3,0.2-1.3-4.2-0.9-1.9c0.1,0.7,0.3,1.4,0.4,2.1c-0.2-1.5-0.4-2.9-0.6-4.4c0.3,2.2,0.2,4.3,0.1,6.5
			c-0.5,8.6,7.9,16.9,16.5,16.5c9.3-0.4,16-7.3,16.5-16.5c0.5-9-1.3-19.7-8.9-25.6c-3.6-2.8-6.9-4.8-11.7-4.8c-4,0-8.9,1.8-11.7,4.8
			c-2.9,3.1-5,7.3-4.8,11.7C398.7,444.4,400,449.3,403.3,452L403.3,452z"/>
	</g>
</g>
<g id="XMLID_222_">
	<g id="XMLID_269_">
		<path id="XMLID_274_" class="st0" d="M418.9,395.3c0.1-2,0.1-2-0.1-0.1c-4.6,5.5-5.4,7-2.6,4.6c2.7-1.9,4.9-3.9,6.6-6.8
			c3.6-6.2,3.4-13.5-0.1-19.7c-8.2-14.7-30.3-7.6-30.7,8.3c-0.3,10,0.4,21.3,2.9,31c0.6,2.5,1.5,5.3,3,7.3c1.6,2.7,1.5,1.8-0.3-2.7
			c0,1.3,0,2.6,0,3.8c0.2,5.9,1,11.9,2.1,17.7c1.5,8.5,12.3,14.1,20.3,11.5c9.2-3,13.1-11.2,11.5-20.3c-1.3-7.1-2.6-14.1-3.8-21.2
			c0.4,2.4,0,0,0-1.2c0-1.4,0-2.8,0.2-4.3c0.3-3.5,0.8-6.8,0.5-10.4c-0.8-8.6-7-16.9-16.5-16.5c-8.2,0.4-17.4,7.3-16.5,16.5
			c0.3,3.5-0.2,6.9-0.5,10.4c-0.4,4.3,0.1,8.4,0.8,12.6c1.2,7.6,2.7,15.2,4,22.7c10.6-2.9,21.2-5.8,31.8-8.8
			c-0.2-1.3-0.5-2.5-0.6-3.8c0.2,1.2,0.2,0.8-0.1-1.3c-0.1-1.9-0.2-3.8-0.3-5.7c-0.1-3,0-6.1-0.8-9c-0.7-1.9-1.5-3.7-2.4-5.4
			c-1-1.6-1.2-1.9-0.7-0.8c1.1,2.4-0.7-4.9-0.2-1.2c-0.3-2.2-0.6-4.5-0.8-6.7c-0.5-4.8-0.8-9.6-0.6-14.4
			c-10.2,2.8-20.5,5.6-30.7,8.3c0.2,0.3,0.3,0.6,0.5,0.9c-0.8-2.8-1.5-5.6-2.3-8.3c0.1-0.7,0.1-1.5,0.2-2.2c1.4-2.4,2.8-4.9,4.2-7.3
			c1.6-0.9,1.9-1,0.8-0.4c-1.4,0.9-2.7,1.9-4,3c-1.7,1.6-3.5,3.4-4.6,5.5c-2.4,4.4-3.1,9.3-3.3,14.2c-0.2,8.6,7.8,16.9,16.5,16.5
			C411.6,411.4,418.7,404.5,418.9,395.3L418.9,395.3z"/>
	</g>
</g>
<g id="XMLID_228_">
	<g id="XMLID_262_">
		<path id="XMLID_267_" class="st0" d="M369.8,308.1c0-0.2,3-7.8,1.2-5.3c-1,1.3-1.7,3.5-2.2,5.1c-1.3,4.6-0.7,9.7,1.6,13.8
			c3.6,6.6,11.9,10.6,19.3,10.2c9.1-0.6,16.8-6.9,18-16.2c1.3-9.3-4.3-17.6-13.2-20.4c-10.4-3.2-20.7,5.5-20.9,15.9
			c-0.1,4.4,0.5,9,2,13.2c1.5,4.2,3.7,7.2,5.7,10.9c-0.6-4.2-1.1-8.5-1.7-12.7c0,0.3-0.1,0.6-0.1,0.9c-1.3,8.5,2.1,18.2,11.5,20.3
			c7.9,1.8,18.9-2.4,20.3-11.5c1-6.5,0.2-11.9-3.9-17.2c-0.9-1.6-0.9-1.5,0,0.5c-0.3-0.8-0.6-1.6-0.8-2.4c-0.4-1.9-0.4-1.7,0,0.6
			c-0.1-0.9-0.1-1.7,0-2.6c-7,5.3-13.9,10.6-20.9,15.9c0.2,0.1,0.5,0.1,0.7,0.2c-2.4-1.4-4.9-2.8-7.3-4.2c0.2,0.2,0.3,0.4,0.5,0.5
			c-1.4-2.4-2.8-4.9-4.2-7.3c0-2.2,0-4.3,0-6.5c1.4-2.4,2.8-4.9,4.2-7.3c0.6-0.5,1.2-1,1.8-1.5c2.8-0.8,5.6-1.5,8.3-2.3
			c1.3,0.2,2.6,0.6,3.9,1.1c2,2,3.9,3.9,5.9,5.9c-0.2-0.3-0.4-0.6-0.6-0.8c0.8,2.8,1.5,5.6,2.3,8.3c-2.3,6.1-2.8,7.9-1.3,5.3
			c0.5-0.9,0.9-1.8,1.2-2.7c1.1-2.6,1.8-4.9,1.6-7.9c-0.4-8.6-7.3-16.9-16.5-16.5C377.7,291.9,369.3,298.8,369.8,308.1L369.8,308.1z
			"/>
	</g>
</g>
<g id="XMLID_235_">
	<g id="XMLID_255_">
		<path id="XMLID_260_" class="st0" d="M262.1,211.9c0.7,1.8,0.7,1.7,0-0.5c-0.9,9.4,8.3,15.8,16.5,16.5c8.9,0.8,17-5.6,20.3-13.4
			c1.5-3.4,2.3-6.8,2.3-10.6c0-1.2,0-2.6-0.1-3.8c-0.4-3.2-0.9,1.7,0.3-1.4c3.1-8.1-3.4-18.5-11.5-20.3c-9.6-2.2-16.7,3-20.3,11.5
			c-3.8,9.2-5.4,19.4-4.6,29.3c0.6,8.3,5.8,15.1,14.3,16.2c8.1,1.1,15.8-3.9,18.1-11.8c1.2-4.2,2.4-8.4,3.6-12.6
			c-10.8-1.5-21.6-2.9-32.4-4.4c-0.2,2.9-0.3,5.8-0.5,8.6c11,0,22,0,33,0c-0.5-13.1,0-26.2,1.7-39.2c1.4-10.8-11.6-18.6-20.9-15.9
			c-6.8,2-11.9,6.9-13.7,13.8c-0.6,2.4-0.8,4.6-0.7,7c0,2,0.4,4,1,5.9c0.8,3,0.9,1.9,0.3-3.3c1.4-2.4,2.8-4.9,4.2-7.3
			c2-1.4,4.2-2.2,6.7-2.5c1.5,0.4,3,0.8,4.6,1.3c0,0.1-3.7-2.5-3.9-2.6c-3.4-2.4-7-4.3-11-5.5c-7-2.2-14.6-2.2-21.8-1.9
			c-14.9,0.5-30.2,1.4-44.5,6.3c-8.1,2.8-14.4,11.5-11.5,20.3c2.6,8.1,11.6,14.5,20.3,11.5c4.6-1.6,9.2-2.7,13.9-3.5
			c2.1-0.3,2.4-0.4,1-0.2c1.2-0.1,2.4-0.3,3.6-0.4c1.8-0.2,3.6-0.3,5.4-0.4c4.8-0.3,9.6-0.5,14.3-0.6c2.2-0.1,4.5,0,6.7,0
			c2,0.2,2.2,0.2,0.6,0c0.8,0.1,1.6,0.3,2.4,0.6c1.1,0.4,1.1,0.3-0.1-0.2c1,0.5,1.9,1,2.7,1.7c1.7,1.2,3.3,2.5,5.1,3.5
			c5.6,3,12.1,4.1,18.2,2.4c6.8-1.8,12.5-6.9,14.7-13.7c1.2-3.8,1.3-7.4,0.5-11.3c-0.1-1-0.4-2-0.8-3c0.2,3.6-0.9,6.9-3.3,10
			c-2.4,1.4-4.9,2.8-7.3,4.2c0.3-0.1,0.6-0.2,0.9-0.3c-7-5.3-13.9-10.6-20.9-15.9c-1.6,13-2.2,26.1-1.7,39.2
			c0.3,8.6,7.3,16.9,16.5,16.5c9.4-0.4,15.9-7.3,16.5-16.5c0.2-2.9,0.3-5.8,0.5-8.6c0.5-8.2-6.7-15.2-14.3-16.2
			c-8.1-1.1-15.8,3.9-18.1,11.8c-1.2,4.2-2.4,8.4-3.6,12.6c10.8,1.5,21.6,2.9,32.4,4.4c-0.6-8,0-12.4,3.4-20.5
			c-10.6-2.9-21.2-5.8-31.8-8.8c-1.3,3.4-1.6,7.3-1.5,10.9c0,0.6,0.4,3.5,0.1,3.8c0-0.7,0.1-1.4,0.1-2c1.6-4.6,5-7.1,10.2-7.7
			c5.5,5.5,11,11,16.5,16.5c0.3-2.7-0.1-5.7-1.2-8.3c-3.2-8-11.1-14.5-20.3-11.5C265.9,194.1,258.6,203.3,262.1,211.9L262.1,211.9z"
			/>
	</g>
</g>
<g id="XMLID_242_">
	<g id="XMLID_248_">
		<path id="XMLID_253_" class="st0" d="M192,172c0,0.8,0,1.6,0,2.3c9,0,18,0,27,0c0-0.9-0.1-1.7-0.1-2.6c0-2.4-0.6-4.7-1.8-6.8
			c-1.2-2-2.8-3.6-4.8-4.8c-2.1-1.2-4.4-1.8-6.8-1.8c-2.4,0-4.7,0.6-6.8,1.8c-1.1,0.6-2.1,1.3-2.9,2.2c-0.4,0.5-0.7,1-1.1,1.4
			c-0.5,0.4-0.8,0.9-1.1,1.5c-1.3,2-1.9,4.9-1.9,7.2c0.2,1.2,0.3,2.4,0.5,3.6c0,0.1,0,0.1,0.1,0.2c0.5,1.1,0.9,2.1,1.4,3.2
			c0.6,1,1.3,2,2.2,2.8c0.5,0.5,0.5,0.5,1.5,1.2c1.8,1.4,2,1.6,4.8,2.5c1.8,0.6,3.6,0.6,5.4,0.2c1.8-0.1,3.5-0.6,5-1.6
			c1.6-0.8,2.8-2,3.8-3.5c1.2-1.3,2-2.8,2.4-4.6c0.2-1.2,0.3-2.4,0.5-3.6c0-2.4-0.6-4.7-1.8-6.8c-0.7-0.9-1.4-1.8-2.1-2.7
			c-1.7-1.7-3.7-2.8-6-3.5c0,0-0.1,0-0.1,0c1.1,0.5,2.1,0.9,3.2,1.4c0,0-0.1,0-0.1-0.1c0.9,0.7,1.8,1.4,2.7,2.1
			c-0.1,0-0.1-0.1-0.1-0.1c0.7,0.9,1.4,1.8,2.1,2.7c0,0,0-0.1,0-0.1c0.5,1.1,0.9,2.1,1.4,3.2c0-0.1,0-0.1-0.1-0.2
			c0.2,1.2,0.3,2.4,0.5,3.6c0-0.1,0-0.1,0-0.2c-0.2,1.2-0.3,2.4-0.5,3.6c0-0.1,0-0.1,0.1-0.2c-0.5,1.1-0.9,2.1-1.4,3.2
			c0,0,0-0.1,0-0.1c-0.7,0.9-1.4,1.8-2.1,2.7c0-0.1,0.1-0.1,0.1-0.1c-0.9,0.7-1.8,1.4-2.7,2.1c0,0,0.1,0,0.1-0.1
			c-6.8-3.9-13.5-7.8-20.3-11.7c0,0.9,0.1,1.7,0.1,2.6c-0.1,1.9,0.3,3.6,1.2,5.2c0.5,1.7,1.5,3.1,2.8,4.3c1.2,1.3,2.7,2.2,4.3,2.8
			c1.6,0.8,3.3,1.2,5.2,1.2c1.2-0.2,2.4-0.3,3.6-0.5c2.3-0.6,4.3-1.8,6-3.5c0.7-0.9,1.4-1.8,2.1-2.7c1.2-2.1,1.8-4.4,1.8-6.8
			c0-0.8,0-1.6,0-2.3c0.1-1.9-0.3-3.6-1.2-5.2c-0.5-1.7-1.5-3.1-2.8-4.3c-1.2-1.3-2.7-2.2-4.3-2.8c-1.6-0.8-3.3-1.2-5.2-1.2
			c-1.2,0.2-2.4,0.3-3.6,0.5c-2.3,0.6-4.3,1.8-6,3.5c-0.7,0.9-1.4,1.8-2.1,2.7C192.6,167.3,192,169.6,192,172L192,172z"/>
	</g>
</g>
<g id="XMLID_249_">
	<g id="XMLID_241_">
		<path id="XMLID_246_" class="st0" d="M251.6,191c11.7-2.8,23.4-4.8,35.5-5.6c7.3-0.5,13.5-5.9,13.5-13.5c0-6.9-6.2-14-13.5-13.5
			c-14.4,1-28.6,3.2-42.6,6.6c-7.1,1.7-11.3,9.7-9.4,16.6C237,188.8,244.5,192.7,251.6,191L251.6,191z"/>
	</g>
</g>
<g id="XMLID_256_">
	<g id="XMLID_234_">
		<path id="XMLID_239_" class="st0" d="M250.5,164.2c-11.7-1.3-24.4-1.5-35.7-4.7c-7-2-14.7,2.4-16.6,9.4c-2,7.3,2.5,14.4,9.4,16.6
			c16.7,5.4,36.1,2.7,53.4,2.3c7.3-0.1,13.5-6.1,13.5-13.5c0-7.2-6.2-13.6-13.5-13.5c-8.1,0.2-16.2,0.3-24.3,0.5
			c-7.5,0.1-14.7,0.5-21.9-1.8c-2.4,8.7-4.8,17.4-7.2,26c7.1,2,14.5,2.4,21.8,3.2c7,0.8,14.1,1.6,21.1,2.4
			c7.3,0.8,13.5-6.8,13.5-13.5C264,169.7,257.8,165,250.5,164.2L250.5,164.2z"/>
	</g>
</g>
<g id="XMLID_263_">
	<g id="XMLID_227_">
		<path id="XMLID_232_" class="st0" d="M200,173.1c2.9,0,5.8-1.7,7.1-4.3c1.3-2.5,1.2-5.1,0.6-7.8c-0.3-1.3-1.2-2.4-2.2-3.1
			c-1.1-0.9-2.2-1.1-3.6-1.3c-0.4,0-0.9-0.1-1.3-0.1c-1.4-0.1-3.3,0.8-4.2,1.8c-1,1-1.8,2.7-1.8,4.2c0.1,1.6,0.6,3.2,1.8,4.2
			c1.2,1.1,2.6,1.6,4.2,1.8c0.4,0,0.9,0.1,1.3,0.1c-1.9-1.5-3.9-2.9-5.8-4.4c0.1,0.4,0.2,0.8,0.2,1.3c-0.1-0.5-0.1-1.1-0.2-1.6
			c0,0.4,0,0.8,0,1.3c0.1-0.5,0.1-1.1,0.2-1.6c0,0.2-0.1,0.4-0.1,0.6c0.2-0.5,0.4-1,0.6-1.4c-0.1,0.3-0.2,0.5-0.4,0.7
			c0.3-0.4,0.6-0.8,0.9-1.2c-0.1,0.1-0.2,0.3-0.4,0.4c0.4-0.3,0.8-0.6,1.2-0.9c-0.1,0.1-0.3,0.2-0.4,0.3c0.5-0.2,1-0.4,1.4-0.6
			c-0.2,0.1-0.3,0.1-0.5,0.1c0.5-0.1,1.1-0.1,1.6-0.2c-0.1,0-0.2,0-0.3,0c-3.1,0-6.1,2.8-6,6C194.1,170.4,196.6,173.1,200,173.1
			L200,173.1z"/>
	</g>
</g>
<g id="XMLID_270_">
	<g id="XMLID_220_">
		<path id="XMLID_225_" class="st0" d="M297.6,172c2.2-2.9,3.2-6.3,3.5-9.9c0.2-2.8-2.1-4.9-4.4-5.8c-2.5-1-5.3-0.9-7.9-0.4
			c-2.9,0.6-4.7,3.8-4.3,6.6c0.4,2.8,2.9,5.4,5.9,5.2c0.5,0,0.9,0,1.4,0c0.2,0,0.6,0.1,0.7,0c-0.2,0.1-1.3-0.3-0.5,0
			c0.1,0,0.6,0.2,0.7,0.2c-0.2,0.1-1.2-0.7-0.5-0.2c-0.1-0.1-1-0.9-0.5-0.4c-0.6-0.6-0.9-1.3-1-2.1c-0.2-1,0-0.2,0,0
			c0.1,0.4,0.1,0.9,0.2,1.3c0.1,0.9,0.3,1.5,0.6,2.4c1.1,2.6,3.5,4.1,6.3,4.2c3.1,0.1,6.1-2.9,6-6c-0.2-3.4-2.6-5.9-6-6
			c0.4,0,0.7,0.1,1.1,0.1c0.9,0.5,1.8,1,2.6,1.5c0,0,1.3,2.8,1.1,1.7c0,0.2,0.2,1.4,0.1,0.6c-0.1-0.9-0.1-1.8-0.4-2.7
			c-0.6-2-2-3.8-3.8-4.9c-2.3-1.5-5.3-1.9-8.1-1.8c0.5,3.9,1.1,7.9,1.6,11.8c0.7-0.1,0.6-0.1-0.2,0c0.3,0,0.6,0,1,0
			c-0.8-0.1-0.9-0.1-0.2,0c0.3,0.1,0.6,0.2,0.9,0.3c-1.5-1.9-2.9-3.9-4.4-5.8c-0.1,1.4,0.3-0.8-0.1,0.4c-0.1,0.2-0.6,1.9-0.3,1.2
			c0.3-0.7-0.4,0.7-0.5,0.8c-0.3,0.5-0.6,1-1,1.4c-1.9,2.5-0.5,6.8,2.2,8.2C292.6,175.8,295.6,174.6,297.6,172L297.6,172z"/>
	</g>
</g>
<g id="XMLID_148_">
	<g id="XMLID_214_">
		<path id="XMLID_218_" class="st0" d="M112.3,442.9c-6.3,5-14.9,14.7-9.2,23c5.2,7.6,16.2,6.5,23.5,3c7.8-3.8,11.8-13.3,4.7-20
			c-7-6.7-16.5-3-22.6,2.8c-6.2,5.8-8.6,17.5,1.8,20.6c7.1,2.1,17.3-0.9,20-8.3c3.6-9.7-5.4-16.3-13.8-17.8
			c-8.1-1.4-16.9-2.1-23.9,2.9c-3.5,2.6-5.6,8.4-1.5,11.8c9.3,7.8,24.3,7,31.3-3.7c4-6.2,2.6-13.7-4.7-16.5
			c-6.4-2.4-14.4-1.8-20.6,1c-6.4,2.9-10.8,9.3-8.8,16.5c2,7.1,9.7,11.1,16.7,10.6c6.1-0.5,13.6-3.4,17.8-8c4.9-5.3,4-13.2-1.4-17.8
			c-6.3-5.3-16.6-4-24.1-2.6c-7.5,1.4-14.8,5.9-18,13.1c-1.4,3.2-1.3,6.5,1.2,9.1c9.1,9.5,25.6,6.8,33.7-2.8
			c9.6-11.5,1.4-25.9-11.5-29.7c-10.8-3.1-25.6-2.8-35.7,2.6c-4.8,2.6-9.7,7.2-10.9,12.7c-1.5,6.7,3.9,13.3,8.9,17
			c9,6.6,21.9,7.3,31.1,0.7c10.8-7.7,14-23.2,5.3-33.7c-9-10.7-24.7-8.6-35.3-1.7c-5.7,3.7-8.1,8.3-8.9,15
			c-0.8,6.9-0.2,14.2,5.2,19.3c9.4,8.8,25.1,3,33.1-4.8c8.6-8.4,10.5-24.2-0.5-31.6c-11.6-7.8-26,1.3-32,11.9
			c-3,5.3-4.5,11.6-2.3,17.4c2.5,6.7,9.3,10.4,16.3,10.3c6.1,0,12.1-3,16.4-7.2c3.9-3.9,8.5-11.3,7-17.1
			c-3-11.8-18.5-17.6-29.1-13.5c-5.3,2.1-9.4,6-12.6,10.8c-3.2,4.8-7.2,11.9-6.8,17.8c0.5,7.8,8.3,10.2,14.9,10.6
			c6.4,0.4,12.5-2.1,15.3-8.1c6.3-13.6-8.8-23.9-21-22.6c-11.1,1.2-26.7,13.2-22,26.1c5,13.6,24.7,7.8,29.5-2.7
			c6.3-13.8-8.1-24-20.6-19.4c-15,5.6-12.9,25.8,2.1,29.8c11.4,3.1,29.1-4,28.3-17.8c-0.3-6.1-5.1-13-10.4-16
			c-6.2-3.5-13.5-0.2-17.3,5.3c-7.3,10.6-2,24.7,9.1,29.9c12.4,5.7,28,1,37.9-7.7c4.4-3.9,6.9-9.7,4.9-15.6
			c-2.6-7.6-11.4-9.5-18-5.9c-5.9,3.3-10.4,9.9-8.8,16.9c1.4,6.1,7,9.4,12.6,11.1c6.5,2,15,3.1,21.4,0.2c6.2-2.8,10-9.6,7.9-16.3
			c-4.6-14.1-27.6-7.7-30.2,4.5c-3.2,14.7,19,20.2,29,14.4c5.2-3,8.7-9.3,7.4-15.3c-1.7-7.8-10.2-9.9-16.7-6.1
			c-13.2,7.7-4.9,28,9.8,24.9c6.2-1.3,13.1-5.7,12-12.9c-1.1-6.6-7.8-11-14.1-11.7c-5.9-0.6-12.4,1.7-15.4,7.1
			c-3.5,6.1-0.5,12.9,5.4,15.9c5.9,3,14.4,3,19.4-1.8c4.9-4.7,5.7-13,0.5-17.8c-4.2-3.8-10.6-3.8-15.2-0.7c-6,4.2-6.4,12.5-2.6,18.2
			c6.9,10.4,28.8,8.8,27.9-6.1c-0.4-6.3-5.4-11.8-11.7-12.2c-7.1-0.5-13.9,4.6-15.8,11.4c-3.9,13.6,16.6,16.8,25,11.2
			c12.7-8.5,2-26.1-11-25.3c-5.8,0.3-13.8,3.3-17,8.5c-3.8,6.1,0.6,14.5,8,14c9.6-0.6,9.7-15.6,0-15c-0.3,0-0.6,0-1,0.1
			c1.8,0.7,3.5,1.5,5.3,2.2c0.3,0.5,0.6,1,0.9,1.5c-0.3,1.9-0.5,3.9-0.8,5.8c-0.4,0.8-0.1-0.1,0.8-0.5c0.8-0.4,1.7-0.9,2.6-1.2
			c0.6-0.2,2.5-0.2,2.7-0.4c2.1-1.7,0.4-1.6-0.5-2c-0.2-0.1-1.6-0.2-1.8-0.2c-3.6,0.1,0.2-2.8,1,2.4c0,1.3,0,2.7,0,4
			c0-0.1,0.5-1.8,0.8-1.6c-0.8-0.3-1.5-0.6-2.3-0.9c0.6-1.3,1.2-2.7,1.8-4c0.2,0.3-2.9,0-2.6-0.1c-3.2,1,0.9,5.7-3.1,0
			c-1.4-1.9-2-3.1-4.5-2.9c-2,0.1-1.6,3.8,0.6,5.1c1.6,1,1.7-0.5,2.7,1.6c-0.3-1.3-0.7-2.5-1-3.8c0,0.4,0,0.8,0,1.1
			c0.3-1.3,0.7-2.5,1-3.8c2-2.7-0.4-0.3-0.4,0.1c-0.1,0.3,1.1,3.1-0.8,2.7c-1.5-1.1-3-2.3-4.5-3.4c-1.7-3.4,0.9-0.4-1.2-1.2
			c-1.4-0.6-4-0.4-5.6-0.9c-0.7-0.2-1.4-0.4-2-0.6c-0.3,3.6,0.3,4.7,1.9,3.3c1.8,0,3.2-0.9,5.1-0.7c-1.3-0.3-2.5-0.7-3.8-1
			c-0.9-1.2-0.9-2.4-0.3-3.4c-0.2,0.1-0.5,0.1-0.7,0.2c-1.1-0.4-3.9,0-5.1-0.1c-2.6-0.3-5.3-1.9-7.7-2.1c0.1,0.6,0.2,1.2,0.3,1.8
			c0.5-0.6,1.1-1.1,1.8-1.4c-1.3-0.9-2.5-1.8-3.8-2.6c0-0.6-0.2-0.6-0.5-0.1c-2.6,0.7-5.7,3.7-8.3,4.8c-4.5,1.9-10.6,3.1-14.9-0.2
			c-3.1-2.4-3.4-6.7,0.4-8.3c-1.3,0.3-2.5,0.7-3.8,1c-0.1,0,2.2,2.5,2.1,2.9c0,0.3-0.6,0.6-0.7,0.8c-1.3,1.9-6.6,2.7-8.6,2
			c-3.4-1.3-0.9-0.9,0.6-1.7c0.4,0,0.7,0,1.1,0.1c-0.2-0.2-0.5-0.4-0.7-0.7c-0.5,0.3-1.1,1.2-2,1.6c-0.3,0.1-0.6,0.3-0.8,0.4
			c-2.3-0.3-1.9,0.6,1.2,2.8c0.5-0.3,1.3-2.4,1.8-3c1.7-2,4.2-3.5,6.8-3.9c2.7-0.4,4.2,0.2,6.3,1.7c-0.4-0.3,1.1-0.3-0.2-0.8
			c-0.8,0-1.5,0-2.2-0.2c-1.8-0.6-1.8-0.3-0.1,0.8c0.3,1.3,0.7,2.5,1,3.8c-0.1-2.5,2.1-5.7,3.3-7.8c1.4-2.4,3-5.1,5.6-6.4
			c4.5-2.3,9.1,0.8,10.9,5c-0.3-1.9-0.5-3.9-0.8-5.8c-0.6,2.9-1.7,5.5-4.2,7.4c-1.2,1-5.4,3.2-6.9,1.6c-3-3.3,6.9-12.4,10.3-12.2
			c6.5,0.4-0.1,9.1-2.3,10.6c-2.3,1.6-5.2,3.1-8,3.1c-3.5,0.1-3.2-2.5-3-5.5c0.2-3.9,0.9-4.8,4.3-6.6c2.9-1.5,6.5-2.9,9.8-2.3
			c7,1.1,6.7,9.6,2.2,13.5c-4.1,3.5-10.5,3-14.6-0.2c-0.6-0.5-1.7-2.2-2.3-2.4c-0.4-0.1-1.2,1.3-0.4,0.8c0.4-0.3,0.6-0.9,1.1-1.2
			c2.7-1.8,5-2.9,8.3-3.5c3.6-0.6,7.4-0.5,11-0.3c3.3,0.2,9.9,0.2,11.8,3.6c2.7,4.9-8.8,8-11.9,4.7c0.4,3,0.8,6.1,1.2,9.1
			c1.7-3.9,4.7-5.4,8.8-6.2c2.1-0.4,10-1.7,10.9,0.3c-0.3-1.3-0.7-2.5-1-3.8c-0.1-0.7,1.7-0.8-0.3,0c-0.8,0.4-1.6,0.8-2.4,1.2
			c-1.1,0.5-2.5,1.1-3.7,1.2c-0.2,0-1.8,0-1.8,0c-0.5,0.5-0.3,1.6,0.2,1.7c0.6,0.1,2.7-1,3.6-1.1c1-0.1,2-0.2,3-0.1
			c0.7,0,1.5,0.1,2.2,0.3c1.5,0.5,1.2,0.1-0.9-1.2c-0.3-1.3-0.7-2.5-1-3.8c0-0.2-2.6,1.4-3.7,1.6c-1.4,0.3-3.2,0.1-4.4-0.8
			c-0.5,3.9-1,7.9-1.5,11.8c3.3-2.4,7-2.2,10.9-1.7c0.9,0.1,4.9,1.5,5.5,1.1c0.3-1.4,0.7-2.8,1-4.2c-0.5,0.2-1,0.3-1.4,0.3
			c-0.3,0-0.6,0-0.9,0c-1.6-0.1-1,0.6,1.8,2c0.3,1.3,0.7,2.5,1,3.8c-0.1-0.5,1.5-1.5,2.2-2.2c0.5-0.4,1-0.8,1.6-1.1
			c-1-0.2-1.6-0.9-2-2c0.3-1.3,0.7-2.5,1-3.8c-0.5,1.1-1.9,1.4-3.1,1.8c-0.8,0.3-1.7,0.4-2.6,0.4c-1.1-0.2-0.9,0.3,0.6,1.4
			c0,1.3,0,2.7,0,4c0.7-3.5,4.3-6.4,7-8.5c3.2-2.5,2.6-7.9,0-10.6C119.8,439.7,115.5,440.4,112.3,442.9L112.3,442.9z"/>
	</g>
</g>
<g id="XMLID_194_">
	<g id="XMLID_208_">
		<path id="XMLID_212_" class="st0" d="M56.7,408.8c0.1,0,0.1,0,0.2,0c4.9,0.3,8.5-5,7.2-9.5c-1.5-5.5-7.5-7.3-12.3-4.9
			c-1.5,0.7-2.8,1.7-4,2.9c-0.5,0.5-1.1,1.1-1.5,1.7c-0.2,0.2-0.4,0.4-0.6,0.6c1.2-0.6,1.3-0.7,0.1-0.5c1.3,0,2.7,0,4,0
			c0.5,0.1,2.6,3.1,1.7,1.2c-0.4-0.8-1.1-1.7-1.8-2.4c-1.2-1.2-2.7-2.2-4.3-2.7c-4.4-1.2-8.7,1.1-11.1,4.9
			c-2.4,3.9-2.1,9.2,2.2,11.7c3.6,2.2,9.2,1.3,11.1-2.8c1.7-3.7,1.1-8.1-2.7-10.3c-3.2-1.9-8.6-1-10.3,2.7c0,0.1-0.1,0.2-0.1,0.3
			c2.2-1.2,4.3-2.5,6.5-3.7c-0.1,0-0.2,0-0.4,0c1.3,0.3,2.5,0.7,3.8,1c-0.1-0.1-0.2-0.1-0.3-0.2c1.2,2.2,2.5,4.3,3.7,6.5
			c0-0.2,0-0.4,0-0.6c-0.3,1.3-0.7,2.5-1,3.8c0.7-1.2,0.2-0.9-1.7,1c-1.3,0-2.7,0-4,0c0.2,0.1,0.4,0.1,0.6,0.2
			c-1.1-0.6-2.2-1.3-3.3-1.9c1.2,0.9-0.4-0.6,0.5,0.6c0.7,0.9,1.3,1.8,2.1,2.6c2.3,2.2,5.7,3.1,8.8,2.4c2.5-0.5,4.6-1.7,6.5-3.4
			c0.6-0.5,1-1.1,1.5-1.7c0.3-0.3,0.6-0.7,0.9-1c-0.2,0.1-0.3,0.2-0.3,0.4c-1.9-0.3-3.9-0.5-5.8-0.8c0.1,0.1,0.2,0.1,0.4,0.2
			c-1.1-1.5-2.3-3-3.4-4.5c0,0.1,0.1,0.2,0.1,0.4c2.4-3.2,4.8-6.3,7.2-9.5c-0.1,0-0.1,0-0.2,0c-4-0.2-7.5,3.6-7.5,7.5
			C49.2,405.5,52.6,408.6,56.7,408.8L56.7,408.8z"/>
	</g>
</g>
<g id="XMLID_197_">
	<g id="XMLID_190_">
		<path id="XMLID_205_" class="st0" d="M33.2,451.7c-5.5,2.1-8.7,6.5-8.3,12.4c0.4,6.4,5.6,10.6,11.2,12.5c13,4.4,27.9,5,41.4,6.1
			c28.6,2.3,57.2,3.5,85.9,4.1c57.7,1.2,115.5-0.2,173.2-2.1c31.5-1,63.7-0.6,94.6-7.4c8.4-1.8,6.3-14.7-2-14.7
			c-40.1-0.4-80.2-2.3-120.2-5.7c0,5,0,10,0,15c17.8,0,35.5-1.7,53-4.9c8.5-1.6,6.3-14.7-2-14.7c-29.6-0.3-59.2,2.2-88.4,7.1
			c-8.3,1.4-6.4,15.3,2,14.7c19.1-1.2,38.1-3.9,56.9-8c8.9-1.9,5.8-13.9-2-14.7c-24.1-2.7-49.3-5-72.3,4.2c-3.1,1.2-5.5,3.7-5.5,7.2
			c0,3,2.3,6.8,5.5,7.2c15,2,30,2.8,45.1,2c9.6-0.5,9.7-14.7,0-15c-52.9-1.7-105.7-3.4-158.6-2.3c-8.4,0.2-10.3,12.5-2,14.7
			c16.7,4.6,34.1,6.4,51.4,5.1c9.5-0.7,9.8-15.2,0-15c-10.7,0.3-21.3,0.5-32,0.8c-9.7,0.2-9.6,14.6,0,15c11,0.4,21.9-0.6,32.7-2.7
			c9.5-1.9,5.5-16.3-4-14.5c-9.5,1.9-19,2.5-28.7,2.2c0,5,0,10,0,15c10.7-0.3,21.3-0.5,32-0.8c0-5,0-10,0-15
			c-16.1,1.2-31.9-0.3-47.4-4.5c-0.7,4.9-1.3,9.8-2,14.7c52.9-1,105.8,0.6,158.6,2.3c0-5,0-10,0-15c-13.7,0.8-27.5,0.4-41.1-1.4
			c0,4.8,0,9.6,0,14.5c21.9-8.8,45.5-6.2,68.4-3.7c-0.7-4.9-1.3-9.8-2-14.7c-17.4,3.8-35.1,6.3-52.9,7.4c0.7,4.9,1.3,9.8,2,14.7
			c27.9-4.7,56.2-6.8,84.5-6.5c-0.7-4.9-1.3-9.8-2-14.7c-16.2,3-32.5,4.4-49,4.4c-9.8,0-9.5,14.2,0,15c40,3.4,80.1,5.3,120.2,5.7
			c-0.7-4.9-1.3-9.8-2-14.7c-24.5,5.4-49.8,5.5-74.8,6.3c-26.1,0.8-52.1,1.7-78.2,2.2c-51.8,1.1-103.6,1.3-155.3-1.2
			c-14.1-0.7-28.3-1.5-42.4-2.7c-7.1-0.6-14.1-1.2-21.1-2.3c-3.5-0.5-7-1.2-10.5-2c-1.1-0.2-2.3-0.5-3.4-0.8
			c-0.9-0.2-1.7-0.5-2.4-0.9c1.3,1.7,0.6,3.2-2,4.4C46.1,462.8,42.3,448.3,33.2,451.7L33.2,451.7z"/>
	</g>
</g>
<g id="XMLID_198_">
	<g id="XMLID_181_">
		<path id="XMLID_188_" class="st0" d="M219.5,485.5c41.6,4.9,83.5,8.1,125.3,8.8c19.5,0.3,39.1-0.4,58.2-4.1
			c9.3-1.8,19.2-4.1,27.8-8.2c8.6-4.1,10.5-16.2,0.1-19.5c-9.2-2.9-13.2,11.5-4,14.5c0.3,0.1,0.6,0.2,1,0.3c-1.5-1.1-3-2.3-4.5-3.4
			c0,0,0.1,0.1,0.1,0.1c0-1.3,0-2.7,0-4c1.6-1.6,1.5-2-0.2-1c-1.1,0.4-2.3,0.8-3.4,1.2c-1.7,0.6-3.4,1.1-5.2,1.7
			c-4,1.2-8.1,2.3-12.2,3.2c-8.2,1.8-16.5,2.9-24.9,3.5c-16.5,1.3-33.1,0.9-49.6,0.3c-36.3-1.3-72.5-4.1-108.6-8.3
			c-4-0.5-7.5,3.8-7.5,7.5C212,482.5,215.4,485,219.5,485.5L219.5,485.5z"/>
	</g>
</g>
<g id="XMLID_201_">
	<g id="XMLID_174_">
		<path id="XMLID_178_" class="st0" d="M373.4,454.5c-11.8-3.2-23.8-3.5-35.7-1c-7.2,1.5-7.1,12.9,0,14.5
			c14.9,3.3,30.1,1.1,43.3-6.5c5.3-3.1,4.7-12.4-1.8-13.7c-15.1-3-30.5-2.3-45.1,2.9c-7.8,2.8-6.8,14.5,2,14.7
			c7,0.2,13.6-1.6,19.5-5.4c4.4-2.8,5.4-10.4,0-13c-15.8-7.4-33.3-9-50-3.9c-6.8,2.1-7.4,12.6,0,14.5c13.7,3.4,27.7,3.4,41.4-0.1
			c8.8-2.2,5.9-13.8-2-14.7c-12-1.4-24-0.7-35.8,1.5c-3.7,0.7-5.8,4.8-5.4,8.2c0.5,4,3.6,6.1,7.4,6.5c11.3,1.3,22.6,1.6,33.9,0.8
			c9.7-0.6,9.6-14.1,0-15c-12.5-1.1-25,0-37.2,3c-6.8,1.7-7.5,13.1,0,14.5c13.5,2.4,26.6-1.1,36.9-10.3c4-3.6,2.1-11.5-3.3-12.5
			c-26.3-4.8-52.9-6.8-79.6-5.6c1.3,4.7,2.5,9.3,3.8,14c1.7-1.2,3.5-2.3,5.4-3.1c6.1-2.3,8.1-13.2,0-14.5
			c-24.6-3.9-49.5-5.5-74.4-4.4c-9.6,0.4-9.7,15.4,0,15c23.5-1,47.1,0.3,70.4,3.9c0-4.8,0-9.6,0-14.5c-3.2,1.2-6.2,2.6-9,4.6
			c-5.7,4-4.2,14.3,3.8,14c25.3-1.1,50.6,0.5,75.6,5c-1.1-4.2-2.2-8.4-3.3-12.5c-6,5.3-14.3,7.8-22.3,6.4c0,4.8,0,9.6,0,14.5
			c11-2.8,22-3.5,33.2-2.5c0-5,0-10,0-15c-11.3,0.7-22.6,0.5-33.9-0.8c0.7,4.9,1.3,9.8,2,14.7c10.5-2,21.2-2.2,31.9-1
			c-0.7-4.9-1.3-9.8-2-14.7c-11.1,2.8-22.3,2.9-33.4,0.1c0,4.8,0,9.6,0,14.5c12.7-3.9,26.3-3.3,38.4,2.4c0-4.3,0-8.6,0-13
			c-3.8,2.4-7.4,3.4-11.9,3.3c0.7,4.9,1.3,9.8,2,14.7c12-4.2,24.6-5.4,37.1-2.9c-0.6-4.6-1.2-9.1-1.8-13.7c-9.7,5.6-20.8,7.4-31.8,5
			c0,4.8,0,9.6,0,14.5c9.3-1.9,18.6-1.5,27.7,1C378.7,471.5,382.7,457,373.4,454.5L373.4,454.5z"/>
	</g>
</g>
<g id="XMLID_203_">
	<g id="XMLID_168_">
		<path id="XMLID_172_" class="st0" d="M47.4,449.2c-3.3,0.6-6,2.4-8.1,5c-1.6,2-2.5,5.3-4.4,6.9c-2.5,2-5.9,2.1-8.3,4.6
			c-2.3,2.4-3.4,5.4-3.4,8.6c0,4.2,3.5,7.2,7.5,7.5c27.8,1.8,55.7-0.8,82.8-7.4c9.4-2.3,5.4-16.8-4-14.5
			c-25.8,6.3-52.2,8.6-78.8,6.9c2.5,2.5,5,5,7.5,7.5c-1.4,1.9-1.1,2.4,0.7,1.3c1.1-0.5,2.2-0.9,3.2-1.4c1.4-0.8,2.8-1.8,3.9-3
			c1.6-1.7,3.5-7.3,5.4-7.6C60.9,461.9,56.9,447.4,47.4,449.2L47.4,449.2z"/>
	</g>
</g>
<g id="XMLID_479_">
	<g id="XMLID_161_">
		<path id="XMLID_166_" class="st0" d="M270,461.1c-5.3,0.4-10,1.6-14.9,3.8c-6.1,2.6-4,12.2,1.8,13.7c-0.1-0.1-0.2-0.2-0.3-0.3
			c2.4-4.2,4.9-8.4,7.3-12.5c-2.3-0.4-4.4-0.7-6.8-0.5c0,5,0,10,0,15c16.9-1.6,33.6-3.9,50.3-7c9.5-1.7,5.5-16.2-4-14.5
			c-15.3,2.8-30.8,5-46.3,6.4c-9.5,0.9-9.7,15.8,0,15c0.9-0.2,1.8-0.2,2.8,0c7.4,1.4,12.4-6.7,7.3-12.5c-1.7-1.9-3.8-3-6.3-3.6
			c0.6,4.6,1.2,9.1,1.8,13.7c2.3-1,4.8-1.5,7.3-1.7C279.6,475.4,279.7,460.4,270,461.1L270,461.1z"/>
	</g>
</g>
<g id="XMLID_89_">
	<g id="XMLID_119_">
		<path id="XMLID_147_" d="M237.1,23.1C260.2,8.5,292.4,8,311,30.3c9,10.8,11.9,24,9.4,37.7c-2.1,11.3-6.1,23.2-0.5,34.2
			c8.7,17.1,31.6,20,40.9,36.4c6.9,12,0.3,26.2,4,38.9c3.2,11.1,13.3,17.5,21.5,24.7c20.4,18,24,50.6,7,72.1
			c-1.2,1.5,0.9,3.6,2.1,2.1c14-17.7,15.5-43.3,4.3-62.8c-6.3-10.9-16.9-16.9-25.3-25.8c-5.8-6.1-8-13.2-7.9-21.5
			c0.1-6.9,1.1-13.9-0.1-20.7c-4-22.2-31-25.4-42.3-42c-8.7-12.8-1-28.1,0.2-41.9c1-11.7-3.1-23.2-10.3-32.3
			c-19.2-24.3-53.8-24.4-78.5-8.9C233.9,21.5,235.4,24.1,237.1,23.1L237.1,23.1z"/>
	</g>
</g>
<g id="XMLID_84_">
	<g id="XMLID_113_">
		<path id="XMLID_141_" d="M239,40.9c0.8,14.4,12.4,24.6,23.5,32.4c12.2,8.6,26.3,14.1,41,16.4c1.9,0.3,2.7-2.6,0.8-2.9
			c-12.9-2-25.2-6.5-36.3-13.4c-11.4-7.2-25.2-17.9-26-32.5C241.9,39,238.9,39,239,40.9L239,40.9z"/>
	</g>
</g>
<g id="XMLID_83_">
	<g id="XMLID_112_">
		<path id="XMLID_135_" d="M233.7,20.8c-23.8-10.6-52.4-4.3-68.6,16.4c-7.7,9.9-11.6,21.5-12.3,33.9c-0.5,8-0.5,16.2-4.3,23.6
			c-2.9,5.6-7.2,10.2-11.6,14.6c-8,8-16.7,15.8-20.2,27c-3.9,12.7-1.3,26.2-3.4,39.2c-1.1,7-3.9,13.4-9.3,18.1
			c-5.1,4.5-11.3,7.4-16.6,11.6c-9.7,7.5-17.3,18-20.9,29.8c-3.9,12.9-2.3,27.3,4.6,39c2.3,3.9,7.6,12.4,12.6,12.9
			c3.2,0.3,3.9-3,1.6-4.6c-0.4-0.3-1.1-0.3-1.5,0c-0.1,0.1-0.3,0.2-0.4,0.3c-1.6,1.1-0.1,3.7,1.5,2.6c-0.6,0.4-8-8-8.6-8.9
			c-1.5-2-2.8-4.1-3.9-6.4c-2.9-5.8-4.6-12.3-4.8-18.8c-0.4-12.1,4.1-23.8,11.5-33.2c3.6-4.6,7.9-8.6,12.7-12
			c4.8-3.4,10.1-6.1,14.5-10c7.5-6.6,10.1-15.9,10.8-25.6c0.8-11.2-0.7-22.9,2.9-33.7c3.5-10.5,12.1-17.8,19.7-25.5
			c6.9-7,13.1-14.6,14.9-24.5c2.3-12.3,0.8-24.5,6.2-36.2c12.4-27,44.5-38.8,71.5-26.8C233.9,24.1,235.4,21.6,233.7,20.8L233.7,20.8
			z"/>
	</g>
</g>
<g id="XMLID_76_">
	<g id="XMLID_111_">
		<path id="XMLID_129_" d="M182.6,91.8c12.5-5.6,24.1-12.8,34.7-21.4c9.6-7.9,21.4-17.7,25.3-29.9c0.6-1.8-2.3-2.6-2.9-0.8
			c-3.8,12.1-16.3,22-25.9,29.7c-10,8-21.1,14.6-32.8,19.9C179.3,90,180.8,92.6,182.6,91.8L182.6,91.8z"/>
	</g>
</g>
<g id="XMLID_312_">
	<g id="XMLID_110_">
		<path id="XMLID_123_" d="M299.3,98.8c0.8-1.5,2.6-1.8,4.1-1c1.3,0.8,1.9,2.4,2.1,3.8c0.4,2.9-1.6,8.4-5.3,5.7
			c-1.6-1.1-3.1,1.5-1.5,2.6c2.5,1.8,5.9,1.2,7.9-1.1c1.9-2.1,2.4-5.4,1.9-8.2c-0.5-2.7-2.2-5.3-4.9-6.1c-2.6-0.7-5.4,0.3-6.7,2.7
			C295.8,99,298.4,100.5,299.3,98.8L299.3,98.8z"/>
	</g>
</g>
<g id="XMLID_318_">
	<g id="XMLID_109_">
		<path id="XMLID_117_" d="M190.7,97.8c-3.1-5.8-11.1-2.4-12.9,2.6c-2,5.7,3.2,11.4,8.9,10.6c1.9-0.2,1.9-3.2,0-3
			c-3.1,0.4-6.5-1.7-6.4-5.1c0.1-3.3,5.6-7.8,7.8-3.6C189.1,101.1,191.6,99.6,190.7,97.8L190.7,97.8z"/>
	</g>
</g>
<g id="XMLID_50_">
	<g id="XMLID_77_">
		<path id="XMLID_107_" d="M197.7,158.3c25,4.3,50.5,5.1,75.7,2.2c5.8-0.7,11.6-1.6,17.4-2.6c1.2-0.2,3.6-1.1,4.7-0.9
			c2.9,0.5,4.8,2.5,5.4,5.1c0.8,3.5,1,7,0.9,10.5c-0.1,13.1-0.9,26.3-1.4,39.4c-0.1,1.9,2.9,1.9,3,0c0.5-14.5,2.2-29.5,1.3-44
			c-0.2-3.9-0.5-10.1-3.8-12.9c-3.3-2.9-9.2-0.4-12.8,0.3c-29.6,5.3-60,5.2-89.7,0.1C196.6,155.1,195.8,158,197.7,158.3L197.7,158.3
			z"/>
	</g>
</g>
<g id="XMLID_49_">
	<g id="XMLID_71_">
		<path id="XMLID_101_" d="M194.1,157.7c-3.2,19.5-5.3,39.2-6.2,59c0,0.5,0.3,1.1,0.7,1.3c35.9,16.5,77.9,16.3,113.6-0.8
			c1.7-0.8,0.2-3.4-1.5-2.6c-24.7,11.8-52.9,15.5-79.8,10.5c-6.3-1.2-12.6-2.8-18.6-4.9c-2.3-0.8-9.2-2.3-10.6-4.2
			c-1.6-2.3-0.4-7.6-0.2-10.2c1-15.9,2.9-31.7,5.5-47.4C197.3,156.6,194.4,155.8,194.1,157.7L194.1,157.7z"/>
	</g>
</g>
<g id="XMLID_40_">
	<g id="XMLID_70_">
		<path id="XMLID_94_" d="M188.2,216c-19.1-4.7-39.5,0.3-54,13.7c-8,7.4-14.2,16.5-21.7,24.5c-8.2,8.6-17.2,16.4-25,25.4
			c-29.2,33.5-45.7,76-54.6,119.1c-5.6,27.2-8.4,54.9-10.5,82.5c-0.1,1.9,2.9,1.9,3,0c3.3-45.7,9-92,25.9-134.9
			c7.6-19.3,17.6-37.9,30.1-54.5c13.1-17.3,29.9-31.1,43.7-47.7c7.4-9,15.3-17.3,26.1-22.1c11.3-5,24.1-6,36.1-3
			C189.2,219.3,190,216.4,188.2,216L188.2,216z"/>
	</g>
</g>
<g id="XMLID_34_">
	<g id="XMLID_69_">
		<path id="XMLID_88_" d="M298.2,217.2c20.3,2,41.4,4.4,58.4,16.8c15.3,11.2,25.4,28,34,44.5c10.3,19.6,18.9,39.8,24.7,61.2
			c5.8,21.5,9.2,43.6,12.2,65.6c3.3,25.3,6.4,50.5,9.6,75.8c0.2,1.9,3.2,1.9,3,0c-3-24-6-48.1-9.1-72.1
			c-2.9-22.3-6.2-44.7-11.8-66.5c-5.7-22.2-14.3-43.1-24.8-63.4c-8.6-16.7-18.5-33.6-33.4-45.6c-17.9-14.3-40.6-17.1-62.7-19.3
			C296.3,214,296.3,217,298.2,217.2L298.2,217.2z"/>
	</g>
</g>
<g id="XMLID_28_">
	<g id="XMLID_68_">
		<path id="XMLID_82_" d="M130.5,346.6c-4.4,22.9-8.8,45.8-13.3,68.7c-4.2,21.7-10.8,44.4-9.8,66.7c0.1,1.9,3.1,1.9,3,0
			c-0.5-11.5,1.4-22.8,3.5-34c2.2-11.3,4.4-22.5,6.5-33.8c4.3-22.2,8.6-44.5,12.9-66.7C133.8,345.5,130.9,344.7,130.5,346.6
			L130.5,346.6z"/>
	</g>
</g>
<g id="XMLID_23_">
	<g id="XMLID_67_">
		<path id="XMLID_75_" d="M334.4,349.4c9.4,22,13.2,45.3,14.9,69c1.7,23.5,2.4,47.1,3.4,70.6c0.1,1.9,3.1,1.9,3,0
			c-1.1-24.8-1.8-49.6-3.7-74.3c-1.8-23-5.9-45.5-15-66.8C336.3,346.2,333.7,347.7,334.4,349.4L334.4,349.4z"/>
	</g>
</g>
<g id="XMLID_29_">
	<g id="XMLID_47_">
		<path id="XMLID_63_" d="M193.2,86c-11.6,23.8-7.7,53.1,9.7,73.1c1.3,1.5,3.4-0.7,2.1-2.1c-16.5-18.9-20.2-46.9-9.3-69.5
			C196.6,85.8,194,84.2,193.2,86L193.2,86z"/>
	</g>
</g>
<g id="XMLID_35_">
	<g id="XMLID_41_">
		<path id="XMLID_56_" d="M292.9,91.3c7.7,21.6,5.3,45.6-6.5,65.3c-1,1.7,1.6,3.2,2.6,1.5c12.2-20.3,14.8-45.3,6.8-67.6
			C295.1,88.7,292.2,89.5,292.9,91.3L292.9,91.3z"/>
	</g>
</g>
<g id="XMLID_42_">
	<g id="XMLID_17_">
		<path id="XMLID_46_" d="M237,106.7c1.4,5.9-6,11.3-2.8,17.2c1.7,3.1,5.9,4.2,8.4,1.7c1.4-1.4-0.7-3.5-2.1-2.1
			c-1.8,0.8-3.1,0.3-3.9-1.5c-0.2-1.3-0.1-2.6,0.3-3.8c0.5-1.5,1.3-3,1.9-4.5c1.1-2.6,1.6-4.9,1-7.7
			C239.4,104,236.5,104.8,237,106.7L237,106.7z"/>
	</g>
</g>
<g id="XMLID_48_">
	<g id="XMLID_18_">
		<path id="XMLID_39_" d="M248,146.4c6.6,0.6,13.1-2,17.4-7c1.2-1.5-0.9-3.6-2.1-2.1c-3.9,4.5-9.3,6.7-15.3,6.2
			C246.1,143.2,246.1,146.2,248,146.4L248,146.4z"/>
	</g>
</g>
<g id="XMLID_55_">
	<g id="XMLID_19_">
		<path id="XMLID_33_" d="M259.5,99c0,0.3,0,0.7,0,1c0,1.2,0.5,2.4,1.3,3.2c0.8,0.8,2.1,1.4,3.2,1.3c1.2-0.1,2.4-0.4,3.2-1.3
			c0.8-0.9,1.3-2,1.3-3.2c0-0.3,0-0.7,0-1c0-1.2-0.5-2.4-1.3-3.2c-0.8-0.8-2.1-1.4-3.2-1.3c-1.2,0.1-2.4,0.4-3.2,1.3
			C260,96.7,259.5,97.8,259.5,99L259.5,99z"/>
	</g>
</g>
<g id="XMLID_57_">
	<g id="XMLID_20_">
		<path id="XMLID_27_" d="M210.5,101c0,0.3,0,0.7,0,1c0,1.2,0.5,2.4,1.3,3.2c0.8,0.8,2.1,1.4,3.2,1.3c1.2-0.1,2.4-0.4,3.2-1.3
			c0.8-0.9,1.3-2,1.3-3.2c0-0.3,0-0.7,0-1c0-1.2-0.5-2.4-1.3-3.2c-0.8-0.8-2.1-1.4-3.2-1.3c-1.2,0.1-2.4,0.4-3.2,1.3
			C211,98.7,210.5,99.8,210.5,101L210.5,101z"/>
	</g>
</g>
<g id="XMLID_78_">
	<g id="XMLID_21_">
		<path id="XMLID_154_" d="M253.4,75.6c4.3-0.9,8.4,0.1,12,2.5c1.6,1.1,3.1-1.5,1.5-2.6c-4.3-2.9-9.3-3.8-14.3-2.8
			C250.7,73.1,251.5,75.9,253.4,75.6L253.4,75.6z"/>
	</g>
</g>
<g id="XMLID_95_">
	<g id="XMLID_155_">
		<path id="XMLID_502_" d="M219.3,74c-3.9-1-7.9-0.9-11.7,0.3c-1.8,0.6-1.1,3.5,0.8,2.9c3.4-1,6.7-1.1,10.2-0.3
			C220.3,77.4,221.1,74.5,219.3,74L219.3,74z"/>
	</g>
</g>
</svg>
